solid Mesh
  facet normal 0 1 0
    outer loop
      vertex -0.789383 10.2 -4.24007
      vertex -0.842289 10.2 -4.20476
      vertex 0.863015 10.2 -1.81
    endloop
  endfacet
  facet normal 0 1 0
    outer loop
      vertex 1.16332 10.2 -3.89866
      vertex 1.12335 10.2 -3.94814
      vertex 1.31237 10.2 -2.33774
    endloop
  endfacet
  facet normal 0 1 0
    outer loop
      vertex -1.44579 10.2 -3.2657
      vertex -1.45593 10.2 -3.2029
      vertex -0.701703 10.2 -1.70829
    endloop
  endfacet
  facet normal 0 1 0
    outer loop
      vertex 1.08129 10.2 -3.99585
      vertex 0.863015 10.2 -1.81
      vertex 1.12335 10.2 -3.94814
    endloop
  endfacet
  facet normal 0 1 0
    outer loop
      vertex 0.863015 10.2 -1.81
      vertex 0.913685 10.2 -1.84844
      vertex 1.12335 10.2 -3.94814
    endloop
  endfacet
  facet normal 0 1 0
    outer loop
      vertex 1.1787 10.2 -2.12161
      vertex 1.21559 10.2 -2.17342
      vertex 1.12335 10.2 -3.94814
    endloop
  endfacet
  facet normal 0 1 0
    outer loop
      vertex 1.16332 10.2 -3.89866
      vertex 1.31237 10.2 -2.33774
      vertex 1.20111 10.2 -3.84749
    endloop
  endfacet
  facet normal 0 1 0
    outer loop
      vertex -0.842289 10.2 -4.20476
      vertex -0.893617 10.2 -4.1672
      vertex 0.863015 10.2 -1.81
    endloop
  endfacet
  facet normal 0 1 0
    outer loop
      vertex -0.893617 10.2 -4.1672
      vertex -0.943272 10.2 -4.12745
      vertex 0.863015 10.2 -1.81
    endloop
  endfacet
  facet normal 0 1 0
    outer loop
      vertex 0.863015 10.2 -1.81
      vertex -0.943272 10.2 -4.12745
      vertex -0.991162 10.2 -4.08559
    endloop
  endfacet
  facet normal 0 1 0
    outer loop
      vertex -0.991162 10.2 -4.08559
      vertex -1.0372 10.2 -4.04169
      vertex 0.863015 10.2 -1.81
    endloop
  endfacet
  facet normal 0 1 0
    outer loop
      vertex -1.0372 10.2 -4.04169
      vertex -1.08129 10.2 -3.99585
      vertex 0.863015 10.2 -1.81
    endloop
  endfacet
  facet normal 0 1 0
    outer loop
      vertex 0.863015 10.2 -1.81
      vertex -1.08129 10.2 -3.99585
      vertex -1.12335 10.2 -3.94814
    endloop
  endfacet
  facet normal 0 1 0
    outer loop
      vertex 1.08129 10.2 -3.99585
      vertex 1.0372 10.2 -4.04169
      vertex 0.863015 10.2 -1.81
    endloop
  endfacet
  facet normal 0 1 0
    outer loop
      vertex 1.0372 10.2 -4.04169
      vertex 0.991162 10.2 -4.08559
      vertex 0.863015 10.2 -1.81
    endloop
  endfacet
  facet normal 0 1 0
    outer loop
      vertex 0.863015 10.2 -1.81
      vertex 0.991162 10.2 -4.08559
      vertex 0.943272 10.2 -4.12745
    endloop
  endfacet
  facet normal 0 1 0
    outer loop
      vertex 0.943272 10.2 -4.12745
      vertex 0.893617 10.2 -4.1672
      vertex 0.863015 10.2 -1.81
    endloop
  endfacet
  facet normal 0 1 0
    outer loop
      vertex 0.893617 10.2 -4.1672
      vertex 0.842289 10.2 -4.20476
      vertex 0.863015 10.2 -1.81
    endloop
  endfacet
  facet normal 0 1 0
    outer loop
      vertex 0.863015 10.2 -1.81
      vertex 0.842289 10.2 -4.20476
      vertex 0.789383 10.2 -4.24007
    endloop
  endfacet
  facet normal 0 1 0
    outer loop
      vertex -0.158717 10.2 -1.53859
      vertex -0.0953492 10.2 -1.5331
      vertex -1.12335 10.2 -3.94814
    endloop
  endfacet
  facet normal 0 1 0
    outer loop
      vertex 1.21559 10.2 -2.17342
      vertex 1.25021 10.2 -2.22678
      vertex 1.12335 10.2 -3.94814
    endloop
  endfacet
  facet normal 0 1 0
    outer loop
      vertex 1.25021 10.2 -2.22678
      vertex 1.28249 10.2 -2.28159
      vertex 1.12335 10.2 -3.94814
    endloop
  endfacet
  facet normal 0 1 0
    outer loop
      vertex 1.12335 10.2 -3.94814
      vertex 1.28249 10.2 -2.28159
      vertex 1.31237 10.2 -2.33774
    endloop
  endfacet
  facet normal 0 1 0
    outer loop
      vertex 1.38706 10.2 -2.5132
      vertex 1.40682 10.2 -2.57366
      vertex 1.23664 10.2 -3.79474
    endloop
  endfacet
  facet normal 0 1 0
    outer loop
      vertex 1.46994 10.2 -3.01272
      vertex 1.46802 10.2 -3.0763
      vertex 1.41741 10.2 -3.38967
    endloop
  endfacet
  facet normal 0 1 0
    outer loop
      vertex 1.39923 10.2 -3.45062
      vertex 1.37842 10.2 -3.51073
      vertex 1.46554 10.2 -2.88562
    endloop
  endfacet
  facet normal 0 1 0
    outer loop
      vertex -1.12335 10.2 -3.94814
      vertex -1.16332 10.2 -3.89866
      vertex -0.701703 10.2 -1.70829
    endloop
  endfacet
  facet normal 0 1 0
    outer loop
      vertex -1.16332 10.2 -3.89866
      vertex -1.20111 10.2 -3.84749
      vertex -0.701703 10.2 -1.70829
    endloop
  endfacet
  facet normal 0 1 0
    outer loop
      vertex -0.701703 10.2 -1.70829
      vertex -0.645168 10.2 -1.67914
      vertex -1.12335 10.2 -3.94814
    endloop
  endfacet
  facet normal 0 1 0
    outer loop
      vertex -0.645168 10.2 -1.67914
      vertex -0.587425 10.2 -1.65247
      vertex -1.12335 10.2 -3.94814
    endloop
  endfacet
  facet normal 0 1 0
    outer loop
      vertex -1.12335 10.2 -3.94814
      vertex -0.587425 10.2 -1.65247
      vertex -0.528582 10.2 -1.62832
    endloop
  endfacet
  facet normal 0 1 0
    outer loop
      vertex 0.913685 10.2 -1.84844
      vertex 0.962645 10.2 -1.88905
      vertex 1.12335 10.2 -3.94814
    endloop
  endfacet
  facet normal 0 1 0
    outer loop
      vertex 0.962645 10.2 -1.88905
      vertex 1.0098 10.2 -1.93173
      vertex 1.12335 10.2 -3.94814
    endloop
  endfacet
  facet normal 0 1 0
    outer loop
      vertex 1.12335 10.2 -3.94814
      vertex 1.0098 10.2 -1.93173
      vertex 1.05507 10.2 -1.97641
    endloop
  endfacet
  facet normal 0 1 0
    outer loop
      vertex 1.05507 10.2 -1.97641
      vertex 1.09836 10.2 -2.02301
      vertex 1.12335 10.2 -3.94814
    endloop
  endfacet
  facet normal 0 1 0
    outer loop
      vertex 1.09836 10.2 -2.02301
      vertex 1.1396 10.2 -2.07144
      vertex 1.12335 10.2 -3.94814
    endloop
  endfacet
  facet normal 0 1 0
    outer loop
      vertex 1.12335 10.2 -3.94814
      vertex 1.1396 10.2 -2.07144
      vertex 1.1787 10.2 -2.12161
    endloop
  endfacet
  facet normal 0 1 0
    outer loop
      vertex 1.38706 10.2 -2.5132
      vertex 1.23664 10.2 -3.79474
      vertex 1.3647 10.2 -2.45366
    endloop
  endfacet
  facet normal 0 1 0
    outer loop
      vertex 1.40682 10.2 -2.57366
      vertex 1.42394 10.2 -2.63492
      vertex 1.23664 10.2 -3.79474
    endloop
  endfacet
  facet normal 0 1 0
    outer loop
      vertex 1.42394 10.2 -2.63492
      vertex 1.4384 10.2 -2.69686
      vertex 1.23664 10.2 -3.79474
    endloop
  endfacet
  facet normal 0 1 0
    outer loop
      vertex 1.23664 10.2 -3.79474
      vertex 1.4384 10.2 -2.69686
      vertex 1.45017 10.2 -2.75937
    endloop
  endfacet
  facet normal 0 1 0
    outer loop
      vertex -1.20111 10.2 -3.84749
      vertex -1.23664 10.2 -3.79474
      vertex -0.701703 10.2 -1.70829
    endloop
  endfacet
  facet normal 0 1 0
    outer loop
      vertex -1.23664 10.2 -3.79474
      vertex -1.26986 10.2 -3.7405
      vertex -0.701703 10.2 -1.70829
    endloop
  endfacet
  facet normal 0 1 0
    outer loop
      vertex -0.701703 10.2 -1.70829
      vertex -1.26986 10.2 -3.7405
      vertex -1.30071 10.2 -3.68488
    endloop
  endfacet
  facet normal 0 1 0
    outer loop
      vertex -0.701703 10.2 -1.70829
      vertex -1.37842 10.2 -3.51073
      vertex -1.39923 10.2 -3.45062
    endloop
  endfacet
  facet normal 0 1 0
    outer loop
      vertex -0.528582 10.2 -1.62832
      vertex -0.46875 10.2 -1.60674
      vertex -1.12335 10.2 -3.94814
    endloop
  endfacet
  facet normal 0 1 0
    outer loop
      vertex -0.46875 10.2 -1.60674
      vertex -0.40804 10.2 -1.58777
      vertex -1.12335 10.2 -3.94814
    endloop
  endfacet
  facet normal 0 1 0
    outer loop
      vertex -1.12335 10.2 -3.94814
      vertex -0.40804 10.2 -1.58777
      vertex -0.346566 10.2 -1.57144
    endloop
  endfacet
  facet normal 0 1 0
    outer loop
      vertex -0.346566 10.2 -1.57144
      vertex -0.284443 10.2 -1.55778
      vertex -1.12335 10.2 -3.94814
    endloop
  endfacet
  facet normal 0 1 0
    outer loop
      vertex -0.284443 10.2 -1.55778
      vertex -0.221787 10.2 -1.54683
      vertex -1.12335 10.2 -3.94814
    endloop
  endfacet
  facet normal 0 1 0
    outer loop
      vertex -1.12335 10.2 -3.94814
      vertex -0.221787 10.2 -1.54683
      vertex -0.158717 10.2 -1.53859
    endloop
  endfacet
  facet normal 0 1 0
    outer loop
      vertex 0.701703 10.2 -1.70829
      vertex 0.756924 10.2 -1.73985
      vertex -1.12335 10.2 -3.94814
    endloop
  endfacet
  facet normal 0 1 0
    outer loop
      vertex 0.756924 10.2 -1.73985
      vertex 0.810728 10.2 -1.77378
      vertex -1.12335 10.2 -3.94814
    endloop
  endfacet
  facet normal 0 1 0
    outer loop
      vertex -1.12335 10.2 -3.94814
      vertex 0.810728 10.2 -1.77378
      vertex 0.863015 10.2 -1.81
    endloop
  endfacet
  facet normal 0 1 0
    outer loop
      vertex 1.39923 10.2 -3.45062
      vertex 1.46554 10.2 -2.88562
      vertex 1.41741 10.2 -3.38967
    endloop
  endfacet
  facet normal 0 1 0
    outer loop
      vertex 1.46554 10.2 -2.88562
      vertex 1.46912 10.2 -2.94912
      vertex 1.41741 10.2 -3.38967
    endloop
  endfacet
  facet normal 0 1 0
    outer loop
      vertex 1.41741 10.2 -3.38967
      vertex 1.46912 10.2 -2.94912
      vertex 1.46994 10.2 -3.01272
    endloop
  endfacet
  facet normal 0 1 0
    outer loop
      vertex 1.46802 10.2 -3.0763
      vertex 1.46334 10.2 -3.13973
      vertex 1.41741 10.2 -3.38967
    endloop
  endfacet
  facet normal 0 1 0
    outer loop
      vertex 1.46334 10.2 -3.13973
      vertex 1.45593 10.2 -3.2029
      vertex 1.41741 10.2 -3.38967
    endloop
  endfacet
  facet normal 0 1 0
    outer loop
      vertex 1.41741 10.2 -3.38967
      vertex 1.45593 10.2 -3.2029
      vertex 1.43294 10.2 -3.32799
    endloop
  endfacet
  facet normal 0 1 0
    outer loop
      vertex 1.45593 10.2 -3.2029
      vertex 1.44579 10.2 -3.2657
      vertex 1.43294 10.2 -3.32799
    endloop
  endfacet
  facet normal 0 1 0
    outer loop
      vertex 1.45017 10.2 -2.75937
      vertex 1.45922 10.2 -2.82233
      vertex 1.23664 10.2 -3.79474
    endloop
  endfacet
  facet normal 0 1 0
    outer loop
      vertex 1.45922 10.2 -2.82233
      vertex 1.46554 10.2 -2.88562
      vertex 1.23664 10.2 -3.79474
    endloop
  endfacet
  facet normal 0 1 0
    outer loop
      vertex 1.23664 10.2 -3.79474
      vertex 1.46554 10.2 -2.88562
      vertex 1.26986 10.2 -3.7405
    endloop
  endfacet
  facet normal 0 1 0
    outer loop
      vertex 1.46554 10.2 -2.88562
      vertex 1.30071 10.2 -3.68488
      vertex 1.26986 10.2 -3.7405
    endloop
  endfacet
  facet normal 0 1 0
    outer loop
      vertex 0.789383 10.2 -4.24007
      vertex 0.735 10.2 -4.27306
      vertex 0.863015 10.2 -1.81
    endloop
  endfacet
  facet normal 0 1 0
    outer loop
      vertex 0.735 10.2 -4.27306
      vertex -0.735 10.2 -4.27306
      vertex 0.863015 10.2 -1.81
    endloop
  endfacet
  facet normal 0 1 0
    outer loop
      vertex 0.863015 10.2 -1.81
      vertex -0.735 10.2 -4.27306
      vertex -0.789383 10.2 -4.24007
    endloop
  endfacet
  facet normal 0 1 0
    outer loop
      vertex -1.30071 10.2 -3.68488
      vertex -1.32912 10.2 -3.62797
      vertex -0.701703 10.2 -1.70829
    endloop
  endfacet
  facet normal 0 1 0
    outer loop
      vertex -1.32912 10.2 -3.62797
      vertex -1.35504 10.2 -3.56988
      vertex -0.701703 10.2 -1.70829
    endloop
  endfacet
  facet normal 0 1 0
    outer loop
      vertex -0.701703 10.2 -1.70829
      vertex -1.35504 10.2 -3.56988
      vertex -1.37842 10.2 -3.51073
    endloop
  endfacet
  facet normal 0 1 0
    outer loop
      vertex -1.39923 10.2 -3.45062
      vertex -1.41741 10.2 -3.38967
      vertex -0.701703 10.2 -1.70829
    endloop
  endfacet
  facet normal 0 1 0
    outer loop
      vertex -1.41741 10.2 -3.38967
      vertex -1.43294 10.2 -3.32799
      vertex -0.701703 10.2 -1.70829
    endloop
  endfacet
  facet normal 0 1 0
    outer loop
      vertex -0.701703 10.2 -1.70829
      vertex -1.43294 10.2 -3.32799
      vertex -1.44579 10.2 -3.2657
    endloop
  endfacet
  facet normal 0 1 0
    outer loop
      vertex -1.45593 10.2 -3.2029
      vertex -1.46334 10.2 -3.13973
      vertex -0.701703 10.2 -1.70829
    endloop
  endfacet
  facet normal 0 1 0
    outer loop
      vertex -1.46334 10.2 -3.13973
      vertex -1.46802 10.2 -3.0763
      vertex -0.701703 10.2 -1.70829
    endloop
  endfacet
  facet normal 0 1 0
    outer loop
      vertex -0.701703 10.2 -1.70829
      vertex -1.46802 10.2 -3.0763
      vertex -1.46994 10.2 -3.01272
    endloop
  endfacet
  facet normal 0 1 0
    outer loop
      vertex -1.46994 10.2 -3.01272
      vertex -1.46912 10.2 -2.94912
      vertex -0.701703 10.2 -1.70829
    endloop
  endfacet
  facet normal 0 1 0
    outer loop
      vertex -1.46912 10.2 -2.94912
      vertex -1.46554 10.2 -2.88562
      vertex -0.701703 10.2 -1.70829
    endloop
  endfacet
  facet normal 0 1 0
    outer loop
      vertex -0.701703 10.2 -1.70829
      vertex -1.46554 10.2 -2.88562
      vertex -1.45922 10.2 -2.82233
    endloop
  endfacet
  facet normal 0 1 0
    outer loop
      vertex -1.45922 10.2 -2.82233
      vertex -1.45017 10.2 -2.75937
      vertex -0.701703 10.2 -1.70829
    endloop
  endfacet
  facet normal 0 1 0
    outer loop
      vertex -1.45017 10.2 -2.75937
      vertex -1.4384 10.2 -2.69686
      vertex -0.701703 10.2 -1.70829
    endloop
  endfacet
  facet normal 0 1 0
    outer loop
      vertex -0.701703 10.2 -1.70829
      vertex -1.4384 10.2 -2.69686
      vertex -1.42394 10.2 -2.63492
    endloop
  endfacet
  facet normal 0 1 0
    outer loop
      vertex -1.42394 10.2 -2.63492
      vertex -1.40682 10.2 -2.57366
      vertex -0.701703 10.2 -1.70829
    endloop
  endfacet
  facet normal 0 1 0
    outer loop
      vertex -1.40682 10.2 -2.57366
      vertex -1.38706 10.2 -2.5132
      vertex -0.701703 10.2 -1.70829
    endloop
  endfacet
  facet normal 0 1 0
    outer loop
      vertex -0.701703 10.2 -1.70829
      vertex -1.38706 10.2 -2.5132
      vertex -1.3647 10.2 -2.45366
    endloop
  endfacet
  facet normal 0 1 0
    outer loop
      vertex -0.0953492 10.2 -1.5331
      vertex -0.0318029 10.2 -1.53034
      vertex -1.12335 10.2 -3.94814
    endloop
  endfacet
  facet normal 0 1 0
    outer loop
      vertex -0.0318029 10.2 -1.53034
      vertex 0.0318029 10.2 -1.53034
      vertex -1.12335 10.2 -3.94814
    endloop
  endfacet
  facet normal 0 1 0
    outer loop
      vertex -1.12335 10.2 -3.94814
      vertex 0.0318029 10.2 -1.53034
      vertex 0.0953492 10.2 -1.5331
    endloop
  endfacet
  facet normal 0 1 0
    outer loop
      vertex -1.12335 10.2 -3.94814
      vertex 0.46875 10.2 -1.60674
      vertex 0.528582 10.2 -1.62832
    endloop
  endfacet
  facet normal 0 1 0
    outer loop
      vertex 1.20111 10.2 -3.84749
      vertex 1.31237 10.2 -2.33774
      vertex 1.23664 10.2 -3.79474
    endloop
  endfacet
  facet normal 0 1 0
    outer loop
      vertex 1.31237 10.2 -2.33774
      vertex 1.33979 10.2 -2.39513
      vertex 1.23664 10.2 -3.79474
    endloop
  endfacet
  facet normal 0 1 0
    outer loop
      vertex 1.23664 10.2 -3.79474
      vertex 1.33979 10.2 -2.39513
      vertex 1.3647 10.2 -2.45366
    endloop
  endfacet
  facet normal 0 1 0
    outer loop
      vertex 1.37842 10.2 -3.51073
      vertex 1.35504 10.2 -3.56988
      vertex 1.46554 10.2 -2.88562
    endloop
  endfacet
  facet normal 0 1 0
    outer loop
      vertex 1.35504 10.2 -3.56988
      vertex 1.32912 10.2 -3.62797
      vertex 1.46554 10.2 -2.88562
    endloop
  endfacet
  facet normal 0 1 0
    outer loop
      vertex 1.46554 10.2 -2.88562
      vertex 1.32912 10.2 -3.62797
      vertex 1.30071 10.2 -3.68488
    endloop
  endfacet
  facet normal 0 1 0
    outer loop
      vertex -1.3647 10.2 -2.45366
      vertex -1.33979 10.2 -2.39513
      vertex -0.701703 10.2 -1.70829
    endloop
  endfacet
  facet normal 0 1 0
    outer loop
      vertex -1.33979 10.2 -2.39513
      vertex -1.31237 10.2 -2.33774
      vertex -0.701703 10.2 -1.70829
    endloop
  endfacet
  facet normal 0 1 0
    outer loop
      vertex -0.701703 10.2 -1.70829
      vertex -1.31237 10.2 -2.33774
      vertex -1.28249 10.2 -2.28159
    endloop
  endfacet
  facet normal 0 1 0
    outer loop
      vertex 0.528582 10.2 -1.62832
      vertex 0.587425 10.2 -1.65247
      vertex -1.12335 10.2 -3.94814
    endloop
  endfacet
  facet normal 0 1 0
    outer loop
      vertex 0.587425 10.2 -1.65247
      vertex 0.645168 10.2 -1.67914
      vertex -1.12335 10.2 -3.94814
    endloop
  endfacet
  facet normal 0 1 0
    outer loop
      vertex -1.12335 10.2 -3.94814
      vertex 0.645168 10.2 -1.67914
      vertex 0.701703 10.2 -1.70829
    endloop
  endfacet
  facet normal 0 1 0
    outer loop
      vertex -1.28249 10.2 -2.28159
      vertex -1.25021 10.2 -2.22678
      vertex -0.701703 10.2 -1.70829
    endloop
  endfacet
  facet normal 0 1 0
    outer loop
      vertex -1.25021 10.2 -2.22678
      vertex -1.21559 10.2 -2.17342
      vertex -0.701703 10.2 -1.70829
    endloop
  endfacet
  facet normal 0 1 0
    outer loop
      vertex -0.701703 10.2 -1.70829
      vertex -1.21559 10.2 -2.17342
      vertex -1.1787 10.2 -2.12161
    endloop
  endfacet
  facet normal 0 1 0
    outer loop
      vertex -1.1787 10.2 -2.12161
      vertex -1.1396 10.2 -2.07144
      vertex -0.701703 10.2 -1.70829
    endloop
  endfacet
  facet normal 0 1 0
    outer loop
      vertex -1.1396 10.2 -2.07144
      vertex -1.09836 10.2 -2.02301
      vertex -0.701703 10.2 -1.70829
    endloop
  endfacet
  facet normal 0 1 0
    outer loop
      vertex -0.701703 10.2 -1.70829
      vertex -1.09836 10.2 -2.02301
      vertex -1.05507 10.2 -1.97641
    endloop
  endfacet
  facet normal 0 1 0
    outer loop
      vertex -1.05507 10.2 -1.97641
      vertex -1.0098 10.2 -1.93173
      vertex -0.701703 10.2 -1.70829
    endloop
  endfacet
  facet normal 0 1 0
    outer loop
      vertex -1.0098 10.2 -1.93173
      vertex -0.962645 10.2 -1.88905
      vertex -0.701703 10.2 -1.70829
    endloop
  endfacet
  facet normal 0 1 0
    outer loop
      vertex -0.701703 10.2 -1.70829
      vertex -0.962645 10.2 -1.88905
      vertex -0.913685 10.2 -1.84844
    endloop
  endfacet
  facet normal 0 1 0
    outer loop
      vertex 0.0953492 10.2 -1.5331
      vertex 0.158717 10.2 -1.53859
      vertex -1.12335 10.2 -3.94814
    endloop
  endfacet
  facet normal 0 1 0
    outer loop
      vertex 0.158717 10.2 -1.53859
      vertex 0.221787 10.2 -1.54683
      vertex -1.12335 10.2 -3.94814
    endloop
  endfacet
  facet normal 0 1 0
    outer loop
      vertex -1.12335 10.2 -3.94814
      vertex 0.221787 10.2 -1.54683
      vertex 0.284443 10.2 -1.55778
    endloop
  endfacet
  facet normal 0 1 0
    outer loop
      vertex 0.284443 10.2 -1.55778
      vertex 0.346566 10.2 -1.57144
      vertex -1.12335 10.2 -3.94814
    endloop
  endfacet
  facet normal 0 1 0
    outer loop
      vertex 0.346566 10.2 -1.57144
      vertex 0.40804 10.2 -1.58777
      vertex -1.12335 10.2 -3.94814
    endloop
  endfacet
  facet normal 0 1 0
    outer loop
      vertex -1.12335 10.2 -3.94814
      vertex 0.40804 10.2 -1.58777
      vertex 0.46875 10.2 -1.60674
    endloop
  endfacet
  facet normal 0 1 0
    outer loop
      vertex -0.913685 10.2 -1.84844
      vertex -0.863015 10.2 -1.81
      vertex -0.701703 10.2 -1.70829
    endloop
  endfacet
  facet normal 0 1 0
    outer loop
      vertex -0.863015 10.2 -1.81
      vertex -0.810728 10.2 -1.77378
      vertex -0.701703 10.2 -1.70829
    endloop
  endfacet
  facet normal 0 1 0
    outer loop
      vertex -0.701703 10.2 -1.70829
      vertex -0.810728 10.2 -1.77378
      vertex -0.756924 10.2 -1.73985
    endloop
  endfacet
  facet normal 0 0 -1
    outer loop
      vertex -0.735 -10.2 -4.27306
      vertex -0.735 10.2 -4.27306
      vertex 0.735 -10.2 -4.27306
    endloop
  endfacet
  facet normal 0 0 -1
    outer loop
      vertex -0.735 10.2 -4.27306
      vertex 0.735 10.2 -4.27306
      vertex 0.735 -10.2 -4.27306
    endloop
  endfacet
  facet normal 0 -1 0
    outer loop
      vertex 0.913685 -10.2 -1.84844
      vertex 0.863015 -10.2 -1.81
      vertex 1.12335 -10.2 -3.94814
    endloop
  endfacet
  facet normal 0 -1 0
    outer loop
      vertex -0.893617 -10.2 -4.1672
      vertex -0.842289 -10.2 -4.20476
      vertex 0.863015 -10.2 -1.81
    endloop
  endfacet
  facet normal 0 -1 0
    outer loop
      vertex 1.12335 -10.2 -3.94814
      vertex 0.863015 -10.2 -1.81
      vertex 1.08129 -10.2 -3.99585
    endloop
  endfacet
  facet normal 0 -1 0
    outer loop
      vertex -1.46334 -10.2 -3.13973
      vertex -1.45593 -10.2 -3.2029
      vertex -0.701703 -10.2 -1.70829
    endloop
  endfacet
  facet normal 0 -1 0
    outer loop
      vertex -1.0372 -10.2 -4.04169
      vertex -0.991162 -10.2 -4.08559
      vertex 0.863015 -10.2 -1.81
    endloop
  endfacet
  facet normal 0 -1 0
    outer loop
      vertex -0.991162 -10.2 -4.08559
      vertex -0.943272 -10.2 -4.12745
      vertex 0.863015 -10.2 -1.81
    endloop
  endfacet
  facet normal 0 -1 0
    outer loop
      vertex 0.863015 -10.2 -1.81
      vertex -0.943272 -10.2 -4.12745
      vertex -0.893617 -10.2 -4.1672
    endloop
  endfacet
  facet normal 0 -1 0
    outer loop
      vertex 0.789383 -10.2 -4.24007
      vertex 0.842289 -10.2 -4.20476
      vertex 0.863015 -10.2 -1.81
    endloop
  endfacet
  facet normal 0 -1 0
    outer loop
      vertex 0.842289 -10.2 -4.20476
      vertex 0.893617 -10.2 -4.1672
      vertex 0.863015 -10.2 -1.81
    endloop
  endfacet
  facet normal 0 -1 0
    outer loop
      vertex 0.863015 -10.2 -1.81
      vertex 0.893617 -10.2 -4.1672
      vertex 0.943272 -10.2 -4.12745
    endloop
  endfacet
  facet normal 0 -1 0
    outer loop
      vertex 1.16332 -10.2 -3.89866
      vertex 1.31237 -10.2 -2.33774
      vertex 1.12335 -10.2 -3.94814
    endloop
  endfacet
  facet normal 0 -1 0
    outer loop
      vertex 1.31237 -10.2 -2.33774
      vertex 1.28249 -10.2 -2.28159
      vertex 1.12335 -10.2 -3.94814
    endloop
  endfacet
  facet normal 0 -1 0
    outer loop
      vertex 0.810728 -10.2 -1.77378
      vertex -1.12335 -10.2 -3.94814
      vertex 0.863015 -10.2 -1.81
    endloop
  endfacet
  facet normal 0 -1 0
    outer loop
      vertex -1.12335 -10.2 -3.94814
      vertex -1.08129 -10.2 -3.99585
      vertex 0.863015 -10.2 -1.81
    endloop
  endfacet
  facet normal 0 -1 0
    outer loop
      vertex 0.863015 -10.2 -1.81
      vertex -1.08129 -10.2 -3.99585
      vertex -1.0372 -10.2 -4.04169
    endloop
  endfacet
  facet normal 0 -1 0
    outer loop
      vertex -0.528582 -10.2 -1.62832
      vertex -0.587425 -10.2 -1.65247
      vertex -1.12335 -10.2 -3.94814
    endloop
  endfacet
  facet normal 0 -1 0
    outer loop
      vertex -0.587425 -10.2 -1.65247
      vertex -0.645168 -10.2 -1.67914
      vertex -1.12335 -10.2 -3.94814
    endloop
  endfacet
  facet normal 0 -1 0
    outer loop
      vertex -1.12335 -10.2 -3.94814
      vertex -0.645168 -10.2 -1.67914
      vertex -0.701703 -10.2 -1.70829
    endloop
  endfacet
  facet normal 0 -1 0
    outer loop
      vertex -1.26986 -10.2 -3.7405
      vertex -1.23664 -10.2 -3.79474
      vertex -0.701703 -10.2 -1.70829
    endloop
  endfacet
  facet normal 0 -1 0
    outer loop
      vertex 0.943272 -10.2 -4.12745
      vertex 0.991162 -10.2 -4.08559
      vertex 0.863015 -10.2 -1.81
    endloop
  endfacet
  facet normal 0 -1 0
    outer loop
      vertex 0.991162 -10.2 -4.08559
      vertex 1.0372 -10.2 -4.04169
      vertex 0.863015 -10.2 -1.81
    endloop
  endfacet
  facet normal 0 -1 0
    outer loop
      vertex 0.863015 -10.2 -1.81
      vertex 1.0372 -10.2 -4.04169
      vertex 1.08129 -10.2 -3.99585
    endloop
  endfacet
  facet normal 0 -1 0
    outer loop
      vertex 1.23664 -10.2 -3.79474
      vertex 1.46554 -10.2 -2.88562
      vertex 1.45922 -10.2 -2.82233
    endloop
  endfacet
  facet normal 0 -1 0
    outer loop
      vertex 1.28249 -10.2 -2.28159
      vertex 1.25021 -10.2 -2.22678
      vertex 1.12335 -10.2 -3.94814
    endloop
  endfacet
  facet normal 0 -1 0
    outer loop
      vertex 1.25021 -10.2 -2.22678
      vertex 1.21559 -10.2 -2.17342
      vertex 1.12335 -10.2 -3.94814
    endloop
  endfacet
  facet normal 0 -1 0
    outer loop
      vertex 1.12335 -10.2 -3.94814
      vertex 1.21559 -10.2 -2.17342
      vertex 1.1787 -10.2 -2.12161
    endloop
  endfacet
  facet normal 0 -1 0
    outer loop
      vertex -1.12335 -10.2 -3.94814
      vertex 0.0953492 -10.2 -1.5331
      vertex 0.0318029 -10.2 -1.53034
    endloop
  endfacet
  facet normal 0 -1 0
    outer loop
      vertex -0.158717 -10.2 -1.53859
      vertex -0.221787 -10.2 -1.54683
      vertex -1.12335 -10.2 -3.94814
    endloop
  endfacet
  facet normal 0 -1 0
    outer loop
      vertex -0.221787 -10.2 -1.54683
      vertex -0.284443 -10.2 -1.55778
      vertex -1.12335 -10.2 -3.94814
    endloop
  endfacet
  facet normal 0 -1 0
    outer loop
      vertex -1.12335 -10.2 -3.94814
      vertex -0.284443 -10.2 -1.55778
      vertex -0.346566 -10.2 -1.57144
    endloop
  endfacet
  facet normal 0 -1 0
    outer loop
      vertex -0.346566 -10.2 -1.57144
      vertex -0.40804 -10.2 -1.58777
      vertex -1.12335 -10.2 -3.94814
    endloop
  endfacet
  facet normal 0 -1 0
    outer loop
      vertex -0.40804 -10.2 -1.58777
      vertex -0.46875 -10.2 -1.60674
      vertex -1.12335 -10.2 -3.94814
    endloop
  endfacet
  facet normal 0 -1 0
    outer loop
      vertex -1.12335 -10.2 -3.94814
      vertex -0.46875 -10.2 -1.60674
      vertex -0.528582 -10.2 -1.62832
    endloop
  endfacet
  facet normal 0 -1 0
    outer loop
      vertex -1.45593 -10.2 -3.2029
      vertex -1.44579 -10.2 -3.2657
      vertex -0.701703 -10.2 -1.70829
    endloop
  endfacet
  facet normal 0 -1 0
    outer loop
      vertex -1.44579 -10.2 -3.2657
      vertex -1.43294 -10.2 -3.32799
      vertex -0.701703 -10.2 -1.70829
    endloop
  endfacet
  facet normal 0 -1 0
    outer loop
      vertex -0.701703 -10.2 -1.70829
      vertex -1.43294 -10.2 -3.32799
      vertex -1.41741 -10.2 -3.38967
    endloop
  endfacet
  facet normal 0 -1 0
    outer loop
      vertex -1.41741 -10.2 -3.38967
      vertex -1.39923 -10.2 -3.45062
      vertex -0.701703 -10.2 -1.70829
    endloop
  endfacet
  facet normal 0 -1 0
    outer loop
      vertex -1.39923 -10.2 -3.45062
      vertex -1.37842 -10.2 -3.51073
      vertex -0.701703 -10.2 -1.70829
    endloop
  endfacet
  facet normal 0 -1 0
    outer loop
      vertex -0.701703 -10.2 -1.70829
      vertex -1.37842 -10.2 -3.51073
      vertex -1.35504 -10.2 -3.56988
    endloop
  endfacet
  facet normal 0 -1 0
    outer loop
      vertex -1.23664 -10.2 -3.79474
      vertex -1.20111 -10.2 -3.84749
      vertex -0.701703 -10.2 -1.70829
    endloop
  endfacet
  facet normal 0 -1 0
    outer loop
      vertex -1.20111 -10.2 -3.84749
      vertex -1.16332 -10.2 -3.89866
      vertex -0.701703 -10.2 -1.70829
    endloop
  endfacet
  facet normal 0 -1 0
    outer loop
      vertex -0.701703 -10.2 -1.70829
      vertex -1.16332 -10.2 -3.89866
      vertex -1.12335 -10.2 -3.94814
    endloop
  endfacet
  facet normal 0 -1 0
    outer loop
      vertex 1.43294 -10.2 -3.32799
      vertex 1.44579 -10.2 -3.2657
      vertex 1.45593 -10.2 -3.2029
    endloop
  endfacet
  facet normal 0 -1 0
    outer loop
      vertex 1.41741 -10.2 -3.38967
      vertex 1.46802 -10.2 -3.0763
      vertex 1.46994 -10.2 -3.01272
    endloop
  endfacet
  facet normal 0 -1 0
    outer loop
      vertex 1.45922 -10.2 -2.82233
      vertex 1.45017 -10.2 -2.75937
      vertex 1.23664 -10.2 -3.79474
    endloop
  endfacet
  facet normal 0 -1 0
    outer loop
      vertex 1.45017 -10.2 -2.75937
      vertex 1.4384 -10.2 -2.69686
      vertex 1.23664 -10.2 -3.79474
    endloop
  endfacet
  facet normal 0 -1 0
    outer loop
      vertex 1.23664 -10.2 -3.79474
      vertex 1.4384 -10.2 -2.69686
      vertex 1.42394 -10.2 -2.63492
    endloop
  endfacet
  facet normal 0 -1 0
    outer loop
      vertex 1.1787 -10.2 -2.12161
      vertex 1.1396 -10.2 -2.07144
      vertex 1.12335 -10.2 -3.94814
    endloop
  endfacet
  facet normal 0 -1 0
    outer loop
      vertex 1.1396 -10.2 -2.07144
      vertex 1.09836 -10.2 -2.02301
      vertex 1.12335 -10.2 -3.94814
    endloop
  endfacet
  facet normal 0 -1 0
    outer loop
      vertex 1.12335 -10.2 -3.94814
      vertex 1.09836 -10.2 -2.02301
      vertex 1.05507 -10.2 -1.97641
    endloop
  endfacet
  facet normal 0 -1 0
    outer loop
      vertex 1.05507 -10.2 -1.97641
      vertex 1.0098 -10.2 -1.93173
      vertex 1.12335 -10.2 -3.94814
    endloop
  endfacet
  facet normal 0 -1 0
    outer loop
      vertex 1.0098 -10.2 -1.93173
      vertex 0.962645 -10.2 -1.88905
      vertex 1.12335 -10.2 -3.94814
    endloop
  endfacet
  facet normal 0 -1 0
    outer loop
      vertex 1.12335 -10.2 -3.94814
      vertex 0.962645 -10.2 -1.88905
      vertex 0.913685 -10.2 -1.84844
    endloop
  endfacet
  facet normal 0 -1 0
    outer loop
      vertex 0.810728 -10.2 -1.77378
      vertex 0.756924 -10.2 -1.73985
      vertex -1.12335 -10.2 -3.94814
    endloop
  endfacet
  facet normal 0 -1 0
    outer loop
      vertex 0.756924 -10.2 -1.73985
      vertex 0.701703 -10.2 -1.70829
      vertex -1.12335 -10.2 -3.94814
    endloop
  endfacet
  facet normal 0 -1 0
    outer loop
      vertex -1.12335 -10.2 -3.94814
      vertex 0.701703 -10.2 -1.70829
      vertex 0.645168 -10.2 -1.67914
    endloop
  endfacet
  facet normal 0 -1 0
    outer loop
      vertex 0.0318029 -10.2 -1.53034
      vertex -0.0318029 -10.2 -1.53034
      vertex -1.12335 -10.2 -3.94814
    endloop
  endfacet
  facet normal 0 -1 0
    outer loop
      vertex -0.0318029 -10.2 -1.53034
      vertex -0.0953492 -10.2 -1.5331
      vertex -1.12335 -10.2 -3.94814
    endloop
  endfacet
  facet normal 0 -1 0
    outer loop
      vertex -1.12335 -10.2 -3.94814
      vertex -0.0953492 -10.2 -1.5331
      vertex -0.158717 -10.2 -1.53859
    endloop
  endfacet
  facet normal 0 -1 0
    outer loop
      vertex -1.25021 -10.2 -2.22678
      vertex -1.28249 -10.2 -2.28159
      vertex -0.701703 -10.2 -1.70829
    endloop
  endfacet
  facet normal 0 -1 0
    outer loop
      vertex -1.28249 -10.2 -2.28159
      vertex -1.31237 -10.2 -2.33774
      vertex -0.701703 -10.2 -1.70829
    endloop
  endfacet
  facet normal 0 -1 0
    outer loop
      vertex -0.701703 -10.2 -1.70829
      vertex -1.31237 -10.2 -2.33774
      vertex -1.33979 -10.2 -2.39513
    endloop
  endfacet
  facet normal 0 -1 0
    outer loop
      vertex -1.33979 -10.2 -2.39513
      vertex -1.3647 -10.2 -2.45366
      vertex -0.701703 -10.2 -1.70829
    endloop
  endfacet
  facet normal 0 -1 0
    outer loop
      vertex -1.3647 -10.2 -2.45366
      vertex -1.38706 -10.2 -2.5132
      vertex -0.701703 -10.2 -1.70829
    endloop
  endfacet
  facet normal 0 -1 0
    outer loop
      vertex -0.701703 -10.2 -1.70829
      vertex -1.38706 -10.2 -2.5132
      vertex -1.40682 -10.2 -2.57366
    endloop
  endfacet
  facet normal 0 -1 0
    outer loop
      vertex -1.35504 -10.2 -3.56988
      vertex -1.32912 -10.2 -3.62797
      vertex -0.701703 -10.2 -1.70829
    endloop
  endfacet
  facet normal 0 -1 0
    outer loop
      vertex -1.32912 -10.2 -3.62797
      vertex -1.30071 -10.2 -3.68488
      vertex -0.701703 -10.2 -1.70829
    endloop
  endfacet
  facet normal 0 -1 0
    outer loop
      vertex -0.701703 -10.2 -1.70829
      vertex -1.30071 -10.2 -3.68488
      vertex -1.26986 -10.2 -3.7405
    endloop
  endfacet
  facet normal 0 -1 0
    outer loop
      vertex 0.735 -10.2 -4.27306
      vertex 0.789383 -10.2 -4.24007
      vertex -0.735 -10.2 -4.27306
    endloop
  endfacet
  facet normal 0 -1 0
    outer loop
      vertex 0.789383 -10.2 -4.24007
      vertex 0.863015 -10.2 -1.81
      vertex -0.735 -10.2 -4.27306
    endloop
  endfacet
  facet normal 0 -1 0
    outer loop
      vertex -0.735 -10.2 -4.27306
      vertex 0.863015 -10.2 -1.81
      vertex -0.789383 -10.2 -4.24007
    endloop
  endfacet
  facet normal 0 -1 0
    outer loop
      vertex 0.863015 -10.2 -1.81
      vertex -0.842289 -10.2 -4.20476
      vertex -0.789383 -10.2 -4.24007
    endloop
  endfacet
  facet normal 0 -1 0
    outer loop
      vertex 1.23664 -10.2 -3.79474
      vertex 1.26986 -10.2 -3.7405
      vertex 1.46554 -10.2 -2.88562
    endloop
  endfacet
  facet normal 0 -1 0
    outer loop
      vertex 1.26986 -10.2 -3.7405
      vertex 1.30071 -10.2 -3.68488
      vertex 1.46554 -10.2 -2.88562
    endloop
  endfacet
  facet normal 0 -1 0
    outer loop
      vertex 1.46554 -10.2 -2.88562
      vertex 1.30071 -10.2 -3.68488
      vertex 1.32912 -10.2 -3.62797
    endloop
  endfacet
  facet normal 0 -1 0
    outer loop
      vertex 1.43294 -10.2 -3.32799
      vertex 1.45593 -10.2 -3.2029
      vertex 1.41741 -10.2 -3.38967
    endloop
  endfacet
  facet normal 0 -1 0
    outer loop
      vertex 1.45593 -10.2 -3.2029
      vertex 1.46334 -10.2 -3.13973
      vertex 1.41741 -10.2 -3.38967
    endloop
  endfacet
  facet normal 0 -1 0
    outer loop
      vertex 1.41741 -10.2 -3.38967
      vertex 1.46334 -10.2 -3.13973
      vertex 1.46802 -10.2 -3.0763
    endloop
  endfacet
  facet normal 0 -1 0
    outer loop
      vertex 1.46994 -10.2 -3.01272
      vertex 1.46912 -10.2 -2.94912
      vertex 1.41741 -10.2 -3.38967
    endloop
  endfacet
  facet normal 0 -1 0
    outer loop
      vertex 1.46912 -10.2 -2.94912
      vertex 1.46554 -10.2 -2.88562
      vertex 1.41741 -10.2 -3.38967
    endloop
  endfacet
  facet normal 0 -1 0
    outer loop
      vertex 1.41741 -10.2 -3.38967
      vertex 1.46554 -10.2 -2.88562
      vertex 1.39923 -10.2 -3.45062
    endloop
  endfacet
  facet normal 0 -1 0
    outer loop
      vertex -0.756924 -10.2 -1.73985
      vertex -0.810728 -10.2 -1.77378
      vertex -1.1787 -10.2 -2.12161
    endloop
  endfacet
  facet normal 0 -1 0
    outer loop
      vertex -0.810728 -10.2 -1.77378
      vertex -0.863015 -10.2 -1.81
      vertex -1.1787 -10.2 -2.12161
    endloop
  endfacet
  facet normal 0 -1 0
    outer loop
      vertex -0.863015 -10.2 -1.81
      vertex -0.913685 -10.2 -1.84844
      vertex -1.1787 -10.2 -2.12161
    endloop
  endfacet
  facet normal 0 -1 0
    outer loop
      vertex -0.913685 -10.2 -1.84844
      vertex -0.962645 -10.2 -1.88905
      vertex -1.1787 -10.2 -2.12161
    endloop
  endfacet
  facet normal 0 -1 0
    outer loop
      vertex -1.1787 -10.2 -2.12161
      vertex -0.962645 -10.2 -1.88905
      vertex -1.0098 -10.2 -1.93173
    endloop
  endfacet
  facet normal 0 -1 0
    outer loop
      vertex -0.756924 -10.2 -1.73985
      vertex -1.1787 -10.2 -2.12161
      vertex -0.701703 -10.2 -1.70829
    endloop
  endfacet
  facet normal 0 -1 0
    outer loop
      vertex -1.1787 -10.2 -2.12161
      vertex -1.21559 -10.2 -2.17342
      vertex -0.701703 -10.2 -1.70829
    endloop
  endfacet
  facet normal 0 -1 0
    outer loop
      vertex -0.701703 -10.2 -1.70829
      vertex -1.21559 -10.2 -2.17342
      vertex -1.25021 -10.2 -2.22678
    endloop
  endfacet
  facet normal 0 -1 0
    outer loop
      vertex -1.40682 -10.2 -2.57366
      vertex -1.42394 -10.2 -2.63492
      vertex -0.701703 -10.2 -1.70829
    endloop
  endfacet
  facet normal 0 -1 0
    outer loop
      vertex -1.42394 -10.2 -2.63492
      vertex -1.4384 -10.2 -2.69686
      vertex -0.701703 -10.2 -1.70829
    endloop
  endfacet
  facet normal 0 -1 0
    outer loop
      vertex -0.701703 -10.2 -1.70829
      vertex -1.4384 -10.2 -2.69686
      vertex -1.45017 -10.2 -2.75937
    endloop
  endfacet
  facet normal 0 -1 0
    outer loop
      vertex -1.45017 -10.2 -2.75937
      vertex -1.45922 -10.2 -2.82233
      vertex -0.701703 -10.2 -1.70829
    endloop
  endfacet
  facet normal 0 -1 0
    outer loop
      vertex -1.45922 -10.2 -2.82233
      vertex -1.46554 -10.2 -2.88562
      vertex -0.701703 -10.2 -1.70829
    endloop
  endfacet
  facet normal 0 -1 0
    outer loop
      vertex -0.701703 -10.2 -1.70829
      vertex -1.46554 -10.2 -2.88562
      vertex -1.46912 -10.2 -2.94912
    endloop
  endfacet
  facet normal 0 -1 0
    outer loop
      vertex -1.46912 -10.2 -2.94912
      vertex -1.46994 -10.2 -3.01272
      vertex -0.701703 -10.2 -1.70829
    endloop
  endfacet
  facet normal 0 -1 0
    outer loop
      vertex -1.46994 -10.2 -3.01272
      vertex -1.46802 -10.2 -3.0763
      vertex -0.701703 -10.2 -1.70829
    endloop
  endfacet
  facet normal 0 -1 0
    outer loop
      vertex -0.701703 -10.2 -1.70829
      vertex -1.46802 -10.2 -3.0763
      vertex -1.46334 -10.2 -3.13973
    endloop
  endfacet
  facet normal 0 -1 0
    outer loop
      vertex 1.32912 -10.2 -3.62797
      vertex 1.35504 -10.2 -3.56988
      vertex 1.46554 -10.2 -2.88562
    endloop
  endfacet
  facet normal 0 -1 0
    outer loop
      vertex 1.35504 -10.2 -3.56988
      vertex 1.37842 -10.2 -3.51073
      vertex 1.46554 -10.2 -2.88562
    endloop
  endfacet
  facet normal 0 -1 0
    outer loop
      vertex 1.46554 -10.2 -2.88562
      vertex 1.37842 -10.2 -3.51073
      vertex 1.39923 -10.2 -3.45062
    endloop
  endfacet
  facet normal 0 -1 0
    outer loop
      vertex 1.42394 -10.2 -2.63492
      vertex 1.40682 -10.2 -2.57366
      vertex 1.23664 -10.2 -3.79474
    endloop
  endfacet
  facet normal 0 -1 0
    outer loop
      vertex 1.40682 -10.2 -2.57366
      vertex 1.38706 -10.2 -2.5132
      vertex 1.23664 -10.2 -3.79474
    endloop
  endfacet
  facet normal 0 -1 0
    outer loop
      vertex 1.23664 -10.2 -3.79474
      vertex 1.38706 -10.2 -2.5132
      vertex 1.3647 -10.2 -2.45366
    endloop
  endfacet
  facet normal 0 -1 0
    outer loop
      vertex 0.645168 -10.2 -1.67914
      vertex 0.587425 -10.2 -1.65247
      vertex -1.12335 -10.2 -3.94814
    endloop
  endfacet
  facet normal 0 -1 0
    outer loop
      vertex 0.587425 -10.2 -1.65247
      vertex 0.528582 -10.2 -1.62832
      vertex -1.12335 -10.2 -3.94814
    endloop
  endfacet
  facet normal 0 -1 0
    outer loop
      vertex -1.12335 -10.2 -3.94814
      vertex 0.528582 -10.2 -1.62832
      vertex 0.46875 -10.2 -1.60674
    endloop
  endfacet
  facet normal 0 -1 0
    outer loop
      vertex -1.0098 -10.2 -1.93173
      vertex -1.05507 -10.2 -1.97641
      vertex -1.1787 -10.2 -2.12161
    endloop
  endfacet
  facet normal 0 -1 0
    outer loop
      vertex -1.05507 -10.2 -1.97641
      vertex -1.09836 -10.2 -2.02301
      vertex -1.1787 -10.2 -2.12161
    endloop
  endfacet
  facet normal 0 -1 0
    outer loop
      vertex -1.1787 -10.2 -2.12161
      vertex -1.09836 -10.2 -2.02301
      vertex -1.1396 -10.2 -2.07144
    endloop
  endfacet
  facet normal 0 -1 0
    outer loop
      vertex 1.16332 -10.2 -3.89866
      vertex 1.20111 -10.2 -3.84749
      vertex 1.31237 -10.2 -2.33774
    endloop
  endfacet
  facet normal 0 -1 0
    outer loop
      vertex 1.20111 -10.2 -3.84749
      vertex 1.23664 -10.2 -3.79474
      vertex 1.31237 -10.2 -2.33774
    endloop
  endfacet
  facet normal 0 -1 0
    outer loop
      vertex 1.31237 -10.2 -2.33774
      vertex 1.23664 -10.2 -3.79474
      vertex 1.33979 -10.2 -2.39513
    endloop
  endfacet
  facet normal 0 -1 0
    outer loop
      vertex 1.23664 -10.2 -3.79474
      vertex 1.3647 -10.2 -2.45366
      vertex 1.33979 -10.2 -2.39513
    endloop
  endfacet
  facet normal 0 -1 0
    outer loop
      vertex 0.46875 -10.2 -1.60674
      vertex 0.40804 -10.2 -1.58777
      vertex -1.12335 -10.2 -3.94814
    endloop
  endfacet
  facet normal 0 -1 0
    outer loop
      vertex 0.40804 -10.2 -1.58777
      vertex 0.346566 -10.2 -1.57144
      vertex -1.12335 -10.2 -3.94814
    endloop
  endfacet
  facet normal 0 -1 0
    outer loop
      vertex -1.12335 -10.2 -3.94814
      vertex 0.346566 -10.2 -1.57144
      vertex 0.284443 -10.2 -1.55778
    endloop
  endfacet
  facet normal 0 -1 0
    outer loop
      vertex 0.284443 -10.2 -1.55778
      vertex 0.221787 -10.2 -1.54683
      vertex -1.12335 -10.2 -3.94814
    endloop
  endfacet
  facet normal 0 -1 0
    outer loop
      vertex 0.221787 -10.2 -1.54683
      vertex 0.158717 -10.2 -1.53859
      vertex -1.12335 -10.2 -3.94814
    endloop
  endfacet
  facet normal 0 -1 0
    outer loop
      vertex -1.12335 -10.2 -3.94814
      vertex 0.158717 -10.2 -1.53859
      vertex 0.0953492 -10.2 -1.5331
    endloop
  endfacet
  facet normal 0.518622 0 -0.855004
    outer loop
      vertex 0.735 -10.2 -4.27306
      vertex 0.735 10.2 -4.27306
      vertex 0.789383 10.2 -4.24007
    endloop
  endfacet
  facet normal 0.518622 0 -0.855004
    outer loop
      vertex 0.735 -10.2 -4.27306
      vertex 0.789383 10.2 -4.24007
      vertex 0.789383 -10.2 -4.24007
    endloop
  endfacet
  facet normal 0.555119 0 -0.831771
    outer loop
      vertex 0.789383 10.2 -4.24007
      vertex 0.842289 10.2 -4.20476
      vertex 0.789383 -10.2 -4.24007
    endloop
  endfacet
  facet normal 0.555119 0 -0.831771
    outer loop
      vertex 0.789383 -10.2 -4.24007
      vertex 0.842289 10.2 -4.20476
      vertex 0.842289 -10.2 -4.20476
    endloop
  endfacet
  facet normal 0.590582 0 -0.806977
    outer loop
      vertex 0.842289 10.2 -4.20476
      vertex 0.893617 10.2 -4.1672
      vertex 0.842289 -10.2 -4.20476
    endloop
  endfacet
  facet normal 0.590582 0 -0.806977
    outer loop
      vertex 0.842289 -10.2 -4.20476
      vertex 0.893617 10.2 -4.1672
      vertex 0.893617 -10.2 -4.1672
    endloop
  endfacet
  facet normal 0.624939 0 -0.780673
    outer loop
      vertex 0.893617 10.2 -4.1672
      vertex 0.943272 10.2 -4.12745
      vertex 0.893617 -10.2 -4.1672
    endloop
  endfacet
  facet normal 0.624939 0 -0.780673
    outer loop
      vertex 0.893617 -10.2 -4.1672
      vertex 0.943272 10.2 -4.12745
      vertex 0.943272 -10.2 -4.12745
    endloop
  endfacet
  facet normal 0.658125 0 -0.752909
    outer loop
      vertex 0.943272 10.2 -4.12745
      vertex 0.991162 10.2 -4.08559
      vertex 0.943272 -10.2 -4.12745
    endloop
  endfacet
  facet normal 0.658125 0 -0.752909
    outer loop
      vertex 0.943272 -10.2 -4.12745
      vertex 0.991162 10.2 -4.08559
      vertex 0.991162 -10.2 -4.08559
    endloop
  endfacet
  facet normal 0.690077 0 -0.723736
    outer loop
      vertex 0.991162 10.2 -4.08559
      vertex 1.0372 10.2 -4.04169
      vertex 0.991162 -10.2 -4.08559
    endloop
  endfacet
  facet normal 0.690077 0 -0.723736
    outer loop
      vertex 0.991162 -10.2 -4.08559
      vertex 1.0372 10.2 -4.04169
      vertex 1.0372 -10.2 -4.04169
    endloop
  endfacet
  facet normal 0.720742 0 -0.693204
    outer loop
      vertex 1.0372 10.2 -4.04169
      vertex 1.08129 10.2 -3.99585
      vertex 1.0372 -10.2 -4.04169
    endloop
  endfacet
  facet normal 0.720742 0 -0.693204
    outer loop
      vertex 1.0372 -10.2 -4.04169
      vertex 1.08129 10.2 -3.99585
      vertex 1.08129 -10.2 -3.99585
    endloop
  endfacet
  facet normal 0.750055 0 -0.661375
    outer loop
      vertex 1.08129 10.2 -3.99585
      vertex 1.12335 10.2 -3.94814
      vertex 1.08129 -10.2 -3.99585
    endloop
  endfacet
  facet normal 0.750055 0 -0.661375
    outer loop
      vertex 1.08129 -10.2 -3.99585
      vertex 1.12335 10.2 -3.94814
      vertex 1.12335 -10.2 -3.94814
    endloop
  endfacet
  facet normal 0.777962 0 -0.628312
    outer loop
      vertex 1.12335 10.2 -3.94814
      vertex 1.16332 10.2 -3.89866
      vertex 1.12335 -10.2 -3.94814
    endloop
  endfacet
  facet normal 0.777962 0 -0.628312
    outer loop
      vertex 1.12335 -10.2 -3.94814
      vertex 1.16332 10.2 -3.89866
      vertex 1.16332 -10.2 -3.89866
    endloop
  endfacet
  facet normal 0.804415 0 -0.594068
    outer loop
      vertex 1.16332 10.2 -3.89866
      vertex 1.20111 10.2 -3.84749
      vertex 1.16332 -10.2 -3.89866
    endloop
  endfacet
  facet normal 0.804415 0 -0.594068
    outer loop
      vertex 1.16332 -10.2 -3.89866
      vertex 1.20111 10.2 -3.84749
      vertex 1.20111 -10.2 -3.84749
    endloop
  endfacet
  facet normal 0.829359 0 -0.558716
    outer loop
      vertex 1.20111 10.2 -3.84749
      vertex 1.23664 10.2 -3.79474
      vertex 1.20111 -10.2 -3.84749
    endloop
  endfacet
  facet normal 0.829359 0 -0.558716
    outer loop
      vertex 1.20111 -10.2 -3.84749
      vertex 1.23664 10.2 -3.79474
      vertex 1.23664 -10.2 -3.79474
    endloop
  endfacet
  facet normal 0.852753 0 -0.522314
    outer loop
      vertex 1.23664 10.2 -3.79474
      vertex 1.26986 10.2 -3.7405
      vertex 1.23664 -10.2 -3.79474
    endloop
  endfacet
  facet normal 0.852753 0 -0.522314
    outer loop
      vertex 1.23664 -10.2 -3.79474
      vertex 1.26986 10.2 -3.7405
      vertex 1.26986 -10.2 -3.7405
    endloop
  endfacet
  facet normal 0.874549 0 -0.484936
    outer loop
      vertex 1.26986 10.2 -3.7405
      vertex 1.30071 10.2 -3.68488
      vertex 1.26986 -10.2 -3.7405
    endloop
  endfacet
  facet normal 0.874549 0 -0.484936
    outer loop
      vertex 1.26986 -10.2 -3.7405
      vertex 1.30071 10.2 -3.68488
      vertex 1.30071 -10.2 -3.68488
    endloop
  endfacet
  facet normal 0.89471 0 -0.446648
    outer loop
      vertex 1.30071 10.2 -3.68488
      vertex 1.32912 10.2 -3.62797
      vertex 1.30071 -10.2 -3.68488
    endloop
  endfacet
  facet normal 0.89471 0 -0.446648
    outer loop
      vertex 1.30071 -10.2 -3.68488
      vertex 1.32912 10.2 -3.62797
      vertex 1.32912 -10.2 -3.62797
    endloop
  endfacet
  facet normal 0.913193 0 -0.407527
    outer loop
      vertex 1.32912 10.2 -3.62797
      vertex 1.35504 10.2 -3.56988
      vertex 1.32912 -10.2 -3.62797
    endloop
  endfacet
  facet normal 0.913193 0 -0.407527
    outer loop
      vertex 1.32912 -10.2 -3.62797
      vertex 1.35504 10.2 -3.56988
      vertex 1.35504 -10.2 -3.56988
    endloop
  endfacet
  facet normal 0.929968 0 -0.367641
    outer loop
      vertex 1.35504 10.2 -3.56988
      vertex 1.37842 10.2 -3.51073
      vertex 1.35504 -10.2 -3.56988
    endloop
  endfacet
  facet normal 0.929968 0 -0.367641
    outer loop
      vertex 1.35504 -10.2 -3.56988
      vertex 1.37842 10.2 -3.51073
      vertex 1.37842 -10.2 -3.51073
    endloop
  endfacet
  facet normal 0.945 0 -0.327069
    outer loop
      vertex 1.37842 10.2 -3.51073
      vertex 1.39923 10.2 -3.45062
      vertex 1.37842 -10.2 -3.51073
    endloop
  endfacet
  facet normal 0.945 0 -0.327069
    outer loop
      vertex 1.37842 -10.2 -3.51073
      vertex 1.39923 10.2 -3.45062
      vertex 1.39923 -10.2 -3.45062
    endloop
  endfacet
  facet normal 0.958265 0 -0.285881
    outer loop
      vertex 1.39923 10.2 -3.45062
      vertex 1.41741 10.2 -3.38967
      vertex 1.39923 -10.2 -3.45062
    endloop
  endfacet
  facet normal 0.958265 0 -0.285881
    outer loop
      vertex 1.39923 -10.2 -3.45062
      vertex 1.41741 10.2 -3.38967
      vertex 1.41741 -10.2 -3.38967
    endloop
  endfacet
  facet normal 0.969735 0 -0.244161
    outer loop
      vertex 1.41741 10.2 -3.38967
      vertex 1.43294 10.2 -3.32799
      vertex 1.41741 -10.2 -3.38967
    endloop
  endfacet
  facet normal 0.969735 0 -0.244161
    outer loop
      vertex 1.41741 -10.2 -3.38967
      vertex 1.43294 10.2 -3.32799
      vertex 1.43294 -10.2 -3.32799
    endloop
  endfacet
  facet normal 0.979389 0 -0.201982
    outer loop
      vertex 1.43294 10.2 -3.32799
      vertex 1.44579 10.2 -3.2657
      vertex 1.43294 -10.2 -3.32799
    endloop
  endfacet
  facet normal 0.979389 0 -0.201982
    outer loop
      vertex 1.43294 -10.2 -3.32799
      vertex 1.44579 10.2 -3.2657
      vertex 1.44579 -10.2 -3.2657
    endloop
  endfacet
  facet normal 0.98721 0 -0.159425
    outer loop
      vertex 1.44579 10.2 -3.2657
      vertex 1.45593 10.2 -3.2029
      vertex 1.44579 -10.2 -3.2657
    endloop
  endfacet
  facet normal 0.98721 0 -0.159425
    outer loop
      vertex 1.44579 -10.2 -3.2657
      vertex 1.45593 10.2 -3.2029
      vertex 1.45593 -10.2 -3.2029
    endloop
  endfacet
  facet normal 0.993182 0 -0.116571
    outer loop
      vertex 1.45593 10.2 -3.2029
      vertex 1.46334 10.2 -3.13973
      vertex 1.45593 -10.2 -3.2029
    endloop
  endfacet
  facet normal 0.993182 0 -0.116571
    outer loop
      vertex 1.45593 -10.2 -3.2029
      vertex 1.46334 10.2 -3.13973
      vertex 1.46334 -10.2 -3.13973
    endloop
  endfacet
  facet normal 0.997296 0 -0.073496
    outer loop
      vertex 1.46334 10.2 -3.13973
      vertex 1.46802 10.2 -3.0763
      vertex 1.46334 -10.2 -3.13973
    endloop
  endfacet
  facet normal 0.997296 0 -0.073496
    outer loop
      vertex 1.46334 -10.2 -3.13973
      vertex 1.46802 10.2 -3.0763
      vertex 1.46802 -10.2 -3.0763
    endloop
  endfacet
  facet normal 0.999541 0 -0.0302871
    outer loop
      vertex 1.46802 10.2 -3.0763
      vertex 1.46994 10.2 -3.01272
      vertex 1.46802 -10.2 -3.0763
    endloop
  endfacet
  facet normal 0.999541 0 -0.0302871
    outer loop
      vertex 1.46802 -10.2 -3.0763
      vertex 1.46994 10.2 -3.01272
      vertex 1.46994 -10.2 -3.01272
    endloop
  endfacet
  facet normal 0.999916 0 0.0129821
    outer loop
      vertex 1.46994 10.2 -3.01272
      vertex 1.46912 10.2 -2.94912
      vertex 1.46994 -10.2 -3.01272
    endloop
  endfacet
  facet normal 0.999916 0 0.0129821
    outer loop
      vertex 1.46994 -10.2 -3.01272
      vertex 1.46912 10.2 -2.94912
      vertex 1.46912 -10.2 -2.94912
    endloop
  endfacet
  facet normal 0.998418 0 0.0562238
    outer loop
      vertex 1.46912 10.2 -2.94912
      vertex 1.46554 10.2 -2.88562
      vertex 1.46912 -10.2 -2.94912
    endloop
  endfacet
  facet normal 0.998418 0 0.0562238
    outer loop
      vertex 1.46912 -10.2 -2.94912
      vertex 1.46554 10.2 -2.88562
      vertex 1.46554 -10.2 -2.88562
    endloop
  endfacet
  facet normal 0.995051 0 0.0993631
    outer loop
      vertex 1.46554 10.2 -2.88562
      vertex 1.45922 10.2 -2.82233
      vertex 1.46554 -10.2 -2.88562
    endloop
  endfacet
  facet normal 0.995051 0 0.0993631
    outer loop
      vertex 1.46554 -10.2 -2.88562
      vertex 1.45922 10.2 -2.82233
      vertex 1.45922 -10.2 -2.82233
    endloop
  endfacet
  facet normal 0.989821 0 0.142316
    outer loop
      vertex 1.45922 10.2 -2.82233
      vertex 1.45017 10.2 -2.75937
      vertex 1.45922 -10.2 -2.82233
    endloop
  endfacet
  facet normal 0.989821 0 0.142316
    outer loop
      vertex 1.45922 -10.2 -2.82233
      vertex 1.45017 10.2 -2.75937
      vertex 1.45017 -10.2 -2.75937
    endloop
  endfacet
  facet normal 0.982739 0 0.184999
    outer loop
      vertex 1.45017 10.2 -2.75937
      vertex 1.4384 10.2 -2.69686
      vertex 1.45017 -10.2 -2.75937
    endloop
  endfacet
  facet normal 0.982739 0 0.184999
    outer loop
      vertex 1.45017 -10.2 -2.75937
      vertex 1.4384 10.2 -2.69686
      vertex 1.4384 -10.2 -2.69686
    endloop
  endfacet
  facet normal 0.973815 0 0.22734
    outer loop
      vertex 1.4384 10.2 -2.69686
      vertex 1.42394 10.2 -2.63492
      vertex 1.4384 -10.2 -2.69686
    endloop
  endfacet
  facet normal 0.973815 0 0.22734
    outer loop
      vertex 1.4384 -10.2 -2.69686
      vertex 1.42394 10.2 -2.63492
      vertex 1.42394 -10.2 -2.63492
    endloop
  endfacet
  facet normal 0.96307 0 0.269252
    outer loop
      vertex 1.42394 10.2 -2.63492
      vertex 1.40682 10.2 -2.57366
      vertex 1.42394 -10.2 -2.63492
    endloop
  endfacet
  facet normal 0.96307 0 0.269252
    outer loop
      vertex 1.42394 -10.2 -2.63492
      vertex 1.40682 10.2 -2.57366
      vertex 1.40682 -10.2 -2.57366
    endloop
  endfacet
  facet normal 0.95052 0 0.310663
    outer loop
      vertex 1.40682 10.2 -2.57366
      vertex 1.38706 10.2 -2.5132
      vertex 1.40682 -10.2 -2.57366
    endloop
  endfacet
  facet normal 0.95052 0 0.310663
    outer loop
      vertex 1.40682 -10.2 -2.57366
      vertex 1.38706 10.2 -2.5132
      vertex 1.38706 -10.2 -2.5132
    endloop
  endfacet
  facet normal 0.936191 0 0.351491
    outer loop
      vertex 1.38706 10.2 -2.5132
      vertex 1.3647 10.2 -2.45366
      vertex 1.38706 -10.2 -2.5132
    endloop
  endfacet
  facet normal 0.936191 0 0.351491
    outer loop
      vertex 1.38706 -10.2 -2.5132
      vertex 1.3647 10.2 -2.45366
      vertex 1.3647 -10.2 -2.45366
    endloop
  endfacet
  facet normal 0.92011 0 0.39166
    outer loop
      vertex 1.3647 10.2 -2.45366
      vertex 1.33979 10.2 -2.39513
      vertex 1.3647 -10.2 -2.45366
    endloop
  endfacet
  facet normal 0.92011 0 0.39166
    outer loop
      vertex 1.3647 -10.2 -2.45366
      vertex 1.33979 10.2 -2.39513
      vertex 1.33979 -10.2 -2.39513
    endloop
  endfacet
  facet normal 0.902306 0 0.431097
    outer loop
      vertex 1.33979 10.2 -2.39513
      vertex 1.31237 10.2 -2.33774
      vertex 1.33979 -10.2 -2.39513
    endloop
  endfacet
  facet normal 0.902306 0 0.431097
    outer loop
      vertex 1.33979 -10.2 -2.39513
      vertex 1.31237 10.2 -2.33774
      vertex 1.31237 -10.2 -2.33774
    endloop
  endfacet
  facet normal 0.882812 0 0.469727
    outer loop
      vertex 1.31237 10.2 -2.33774
      vertex 1.28249 10.2 -2.28159
      vertex 1.31237 -10.2 -2.33774
    endloop
  endfacet
  facet normal 0.882812 0 0.469727
    outer loop
      vertex 1.31237 -10.2 -2.33774
      vertex 1.28249 10.2 -2.28159
      vertex 1.28249 -10.2 -2.28159
    endloop
  endfacet
  facet normal 0.861666 0 0.507475
    outer loop
      vertex 1.28249 10.2 -2.28159
      vertex 1.25021 10.2 -2.22678
      vertex 1.28249 -10.2 -2.28159
    endloop
  endfacet
  facet normal 0.861666 0 0.507475
    outer loop
      vertex 1.28249 -10.2 -2.28159
      vertex 1.25021 10.2 -2.22678
      vertex 1.25021 -10.2 -2.22678
    endloop
  endfacet
  facet normal 0.838906 0 0.544277
    outer loop
      vertex 1.25021 10.2 -2.22678
      vertex 1.21559 10.2 -2.17342
      vertex 1.25021 -10.2 -2.22678
    endloop
  endfacet
  facet normal 0.838906 0 0.544277
    outer loop
      vertex 1.25021 -10.2 -2.22678
      vertex 1.21559 10.2 -2.17342
      vertex 1.21559 -10.2 -2.17342
    endloop
  endfacet
  facet normal 0.814576 0 0.580057
    outer loop
      vertex 1.21559 10.2 -2.17342
      vertex 1.1787 10.2 -2.12161
      vertex 1.21559 -10.2 -2.17342
    endloop
  endfacet
  facet normal 0.814576 0 0.580057
    outer loop
      vertex 1.21559 -10.2 -2.17342
      vertex 1.1787 10.2 -2.12161
      vertex 1.1787 -10.2 -2.12161
    endloop
  endfacet
  facet normal 0.788722 0 0.61475
    outer loop
      vertex 1.1787 10.2 -2.12161
      vertex 1.1396 10.2 -2.07144
      vertex 1.1787 -10.2 -2.12161
    endloop
  endfacet
  facet normal 0.788722 0 0.61475
    outer loop
      vertex 1.1787 -10.2 -2.12161
      vertex 1.1396 10.2 -2.07144
      vertex 1.1396 -10.2 -2.07144
    endloop
  endfacet
  facet normal 0.761389 0 0.648295
    outer loop
      vertex 1.1396 10.2 -2.07144
      vertex 1.09836 10.2 -2.02301
      vertex 1.1396 -10.2 -2.07144
    endloop
  endfacet
  facet normal 0.761389 0 0.648295
    outer loop
      vertex 1.1396 -10.2 -2.07144
      vertex 1.09836 10.2 -2.02301
      vertex 1.09836 -10.2 -2.02301
    endloop
  endfacet
  facet normal 0.732629 0 0.680628
    outer loop
      vertex 1.09836 10.2 -2.02301
      vertex 1.05507 10.2 -1.97641
      vertex 1.09836 -10.2 -2.02301
    endloop
  endfacet
  facet normal 0.732629 0 0.680628
    outer loop
      vertex 1.09836 -10.2 -2.02301
      vertex 1.05507 10.2 -1.97641
      vertex 1.05507 -10.2 -1.97641
    endloop
  endfacet
  facet normal 0.702503 0 0.71168
    outer loop
      vertex 1.05507 10.2 -1.97641
      vertex 1.0098 10.2 -1.93173
      vertex 1.05507 -10.2 -1.97641
    endloop
  endfacet
  facet normal 0.702503 0 0.71168
    outer loop
      vertex 1.05507 -10.2 -1.97641
      vertex 1.0098 10.2 -1.93173
      vertex 1.0098 -10.2 -1.93173
    endloop
  endfacet
  facet normal 0.671057 0 0.741405
    outer loop
      vertex 1.0098 10.2 -1.93173
      vertex 0.962645 10.2 -1.88905
      vertex 1.0098 -10.2 -1.93173
    endloop
  endfacet
  facet normal 0.671057 0 0.741405
    outer loop
      vertex 1.0098 -10.2 -1.93173
      vertex 0.962645 10.2 -1.88905
      vertex 0.962645 -10.2 -1.88905
    endloop
  endfacet
  facet normal 0.638357 0 0.76974
    outer loop
      vertex 0.962645 10.2 -1.88905
      vertex 0.913685 10.2 -1.84844
      vertex 0.962645 -10.2 -1.88905
    endloop
  endfacet
  facet normal 0.638357 0 0.76974
    outer loop
      vertex 0.962645 -10.2 -1.88905
      vertex 0.913685 10.2 -1.84844
      vertex 0.913685 -10.2 -1.84844
    endloop
  endfacet
  facet normal 0.604461 0 0.796635
    outer loop
      vertex 0.913685 10.2 -1.84844
      vertex 0.863015 10.2 -1.81
      vertex 0.913685 -10.2 -1.84844
    endloop
  endfacet
  facet normal 0.604461 0 0.796635
    outer loop
      vertex 0.913685 -10.2 -1.84844
      vertex 0.863015 10.2 -1.81
      vertex 0.863015 -10.2 -1.81
    endloop
  endfacet
  facet normal 0.569434 0 0.822037
    outer loop
      vertex 0.863015 10.2 -1.81
      vertex 0.810728 10.2 -1.77378
      vertex 0.863015 -10.2 -1.81
    endloop
  endfacet
  facet normal 0.569434 0 0.822037
    outer loop
      vertex 0.863015 -10.2 -1.81
      vertex 0.810728 10.2 -1.77378
      vertex 0.810728 -10.2 -1.77378
    endloop
  endfacet
  facet normal 0.533339 0 0.845902
    outer loop
      vertex 0.810728 10.2 -1.77378
      vertex 0.756924 10.2 -1.73985
      vertex 0.810728 -10.2 -1.77378
    endloop
  endfacet
  facet normal 0.533339 0 0.845902
    outer loop
      vertex 0.810728 -10.2 -1.77378
      vertex 0.756924 10.2 -1.73985
      vertex 0.756924 -10.2 -1.73985
    endloop
  endfacet
  facet normal 0.496248 0 0.868181
    outer loop
      vertex 0.756924 10.2 -1.73985
      vertex 0.701703 10.2 -1.70829
      vertex 0.756924 -10.2 -1.73985
    endloop
  endfacet
  facet normal 0.496248 0 0.868181
    outer loop
      vertex 0.756924 -10.2 -1.73985
      vertex 0.701703 10.2 -1.70829
      vertex 0.701703 -10.2 -1.70829
    endloop
  endfacet
  facet normal 0.458226 0 0.888836
    outer loop
      vertex 0.701703 10.2 -1.70829
      vertex 0.645168 10.2 -1.67914
      vertex 0.701703 -10.2 -1.70829
    endloop
  endfacet
  facet normal 0.458226 0 0.888836
    outer loop
      vertex 0.701703 -10.2 -1.70829
      vertex 0.645168 10.2 -1.67914
      vertex 0.645168 -10.2 -1.67914
    endloop
  endfacet
  facet normal 0.419348 0 0.907826
    outer loop
      vertex 0.645168 10.2 -1.67914
      vertex 0.587425 10.2 -1.65247
      vertex 0.645168 -10.2 -1.67914
    endloop
  endfacet
  facet normal 0.419348 0 0.907826
    outer loop
      vertex 0.645168 -10.2 -1.67914
      vertex 0.587425 10.2 -1.65247
      vertex 0.587425 -10.2 -1.65247
    endloop
  endfacet
  facet normal 0.379683 0 0.925117
    outer loop
      vertex 0.587425 10.2 -1.65247
      vertex 0.528582 10.2 -1.62832
      vertex 0.587425 -10.2 -1.65247
    endloop
  endfacet
  facet normal 0.379683 0 0.925117
    outer loop
      vertex 0.587425 -10.2 -1.65247
      vertex 0.528582 10.2 -1.62832
      vertex 0.528582 -10.2 -1.62832
    endloop
  endfacet
  facet normal 0.339309 0 0.940675
    outer loop
      vertex 0.528582 10.2 -1.62832
      vertex 0.46875 10.2 -1.60674
      vertex 0.528582 -10.2 -1.62832
    endloop
  endfacet
  facet normal 0.339309 0 0.940675
    outer loop
      vertex 0.528582 -10.2 -1.62832
      vertex 0.46875 10.2 -1.60674
      vertex 0.46875 -10.2 -1.60674
    endloop
  endfacet
  facet normal 0.298296 0 0.954473
    outer loop
      vertex 0.46875 10.2 -1.60674
      vertex 0.40804 10.2 -1.58777
      vertex 0.46875 -10.2 -1.60674
    endloop
  endfacet
  facet normal 0.298296 0 0.954473
    outer loop
      vertex 0.46875 -10.2 -1.60674
      vertex 0.40804 10.2 -1.58777
      vertex 0.40804 -10.2 -1.58777
    endloop
  endfacet
  facet normal 0.256729 0 0.966483
    outer loop
      vertex 0.40804 10.2 -1.58777
      vertex 0.346566 10.2 -1.57144
      vertex 0.40804 -10.2 -1.58777
    endloop
  endfacet
  facet normal 0.256729 0 0.966483
    outer loop
      vertex 0.40804 -10.2 -1.58777
      vertex 0.346566 10.2 -1.57144
      vertex 0.346566 -10.2 -1.57144
    endloop
  endfacet
  facet normal 0.214679 0 0.976685
    outer loop
      vertex 0.346566 10.2 -1.57144
      vertex 0.284443 10.2 -1.55778
      vertex 0.346566 -10.2 -1.57144
    endloop
  endfacet
  facet normal 0.214679 0 0.976685
    outer loop
      vertex 0.346566 -10.2 -1.57144
      vertex 0.284443 10.2 -1.55778
      vertex 0.284443 -10.2 -1.55778
    endloop
  endfacet
  facet normal 0.172228 0 0.985057
    outer loop
      vertex 0.284443 10.2 -1.55778
      vertex 0.221787 10.2 -1.54683
      vertex 0.284443 -10.2 -1.55778
    endloop
  endfacet
  facet normal 0.172228 0 0.985057
    outer loop
      vertex 0.284443 -10.2 -1.55778
      vertex 0.221787 10.2 -1.54683
      vertex 0.221787 -10.2 -1.54683
    endloop
  endfacet
  facet normal 0.129453 0 0.991586
    outer loop
      vertex 0.221787 10.2 -1.54683
      vertex 0.158717 10.2 -1.53859
      vertex 0.221787 -10.2 -1.54683
    endloop
  endfacet
  facet normal 0.129453 0 0.991586
    outer loop
      vertex 0.221787 -10.2 -1.54683
      vertex 0.158717 10.2 -1.53859
      vertex 0.158717 -10.2 -1.53859
    endloop
  endfacet
  facet normal 0.0864378 0 0.996257
    outer loop
      vertex 0.158717 10.2 -1.53859
      vertex 0.0953492 10.2 -1.5331
      vertex 0.158717 -10.2 -1.53859
    endloop
  endfacet
  facet normal 0.0864378 0 0.996257
    outer loop
      vertex 0.158717 -10.2 -1.53859
      vertex 0.0953492 10.2 -1.5331
      vertex 0.0953492 -10.2 -1.5331
    endloop
  endfacet
  facet normal 0.0432601 0 0.999064
    outer loop
      vertex 0.0953492 10.2 -1.5331
      vertex 0.0318029 10.2 -1.53034
      vertex 0.0953492 -10.2 -1.5331
    endloop
  endfacet
  facet normal 0.0432601 0 0.999064
    outer loop
      vertex 0.0953492 -10.2 -1.5331
      vertex 0.0318029 10.2 -1.53034
      vertex 0.0318029 -10.2 -1.53034
    endloop
  endfacet
  facet normal 0 0 1
    outer loop
      vertex 0.0318029 10.2 -1.53034
      vertex -0.0318029 10.2 -1.53034
      vertex 0.0318029 -10.2 -1.53034
    endloop
  endfacet
  facet normal 0 0 1
    outer loop
      vertex 0.0318029 -10.2 -1.53034
      vertex -0.0318029 10.2 -1.53034
      vertex -0.0318029 -10.2 -1.53034
    endloop
  endfacet
  facet normal -0.0432601 0 0.999064
    outer loop
      vertex -0.0318029 10.2 -1.53034
      vertex -0.0953492 10.2 -1.5331
      vertex -0.0318029 -10.2 -1.53034
    endloop
  endfacet
  facet normal -0.0432601 0 0.999064
    outer loop
      vertex -0.0318029 -10.2 -1.53034
      vertex -0.0953492 10.2 -1.5331
      vertex -0.0953492 -10.2 -1.5331
    endloop
  endfacet
  facet normal -0.0864378 0 0.996257
    outer loop
      vertex -0.0953492 10.2 -1.5331
      vertex -0.158717 10.2 -1.53859
      vertex -0.0953492 -10.2 -1.5331
    endloop
  endfacet
  facet normal -0.0864378 0 0.996257
    outer loop
      vertex -0.0953492 -10.2 -1.5331
      vertex -0.158717 10.2 -1.53859
      vertex -0.158717 -10.2 -1.53859
    endloop
  endfacet
  facet normal -0.129453 0 0.991586
    outer loop
      vertex -0.158717 10.2 -1.53859
      vertex -0.221787 10.2 -1.54683
      vertex -0.158717 -10.2 -1.53859
    endloop
  endfacet
  facet normal -0.129453 0 0.991586
    outer loop
      vertex -0.158717 -10.2 -1.53859
      vertex -0.221787 10.2 -1.54683
      vertex -0.221787 -10.2 -1.54683
    endloop
  endfacet
  facet normal -0.172228 0 0.985057
    outer loop
      vertex -0.221787 10.2 -1.54683
      vertex -0.284443 10.2 -1.55778
      vertex -0.221787 -10.2 -1.54683
    endloop
  endfacet
  facet normal -0.172228 0 0.985057
    outer loop
      vertex -0.221787 -10.2 -1.54683
      vertex -0.284443 10.2 -1.55778
      vertex -0.284443 -10.2 -1.55778
    endloop
  endfacet
  facet normal -0.214679 0 0.976685
    outer loop
      vertex -0.284443 10.2 -1.55778
      vertex -0.346566 10.2 -1.57144
      vertex -0.284443 -10.2 -1.55778
    endloop
  endfacet
  facet normal -0.214679 0 0.976685
    outer loop
      vertex -0.284443 -10.2 -1.55778
      vertex -0.346566 10.2 -1.57144
      vertex -0.346566 -10.2 -1.57144
    endloop
  endfacet
  facet normal -0.256729 0 0.966483
    outer loop
      vertex -0.346566 10.2 -1.57144
      vertex -0.40804 10.2 -1.58777
      vertex -0.346566 -10.2 -1.57144
    endloop
  endfacet
  facet normal -0.256729 0 0.966483
    outer loop
      vertex -0.346566 -10.2 -1.57144
      vertex -0.40804 10.2 -1.58777
      vertex -0.40804 -10.2 -1.58777
    endloop
  endfacet
  facet normal -0.298296 0 0.954473
    outer loop
      vertex -0.40804 10.2 -1.58777
      vertex -0.46875 10.2 -1.60674
      vertex -0.40804 -10.2 -1.58777
    endloop
  endfacet
  facet normal -0.298296 0 0.954473
    outer loop
      vertex -0.40804 -10.2 -1.58777
      vertex -0.46875 10.2 -1.60674
      vertex -0.46875 -10.2 -1.60674
    endloop
  endfacet
  facet normal -0.339309 0 0.940675
    outer loop
      vertex -0.46875 10.2 -1.60674
      vertex -0.528582 10.2 -1.62832
      vertex -0.46875 -10.2 -1.60674
    endloop
  endfacet
  facet normal -0.339309 0 0.940675
    outer loop
      vertex -0.46875 -10.2 -1.60674
      vertex -0.528582 10.2 -1.62832
      vertex -0.528582 -10.2 -1.62832
    endloop
  endfacet
  facet normal -0.379683 0 0.925117
    outer loop
      vertex -0.528582 10.2 -1.62832
      vertex -0.587425 10.2 -1.65247
      vertex -0.528582 -10.2 -1.62832
    endloop
  endfacet
  facet normal -0.379683 0 0.925117
    outer loop
      vertex -0.528582 -10.2 -1.62832
      vertex -0.587425 10.2 -1.65247
      vertex -0.587425 -10.2 -1.65247
    endloop
  endfacet
  facet normal -0.419348 0 0.907826
    outer loop
      vertex -0.587425 10.2 -1.65247
      vertex -0.645168 10.2 -1.67914
      vertex -0.587425 -10.2 -1.65247
    endloop
  endfacet
  facet normal -0.419348 0 0.907826
    outer loop
      vertex -0.587425 -10.2 -1.65247
      vertex -0.645168 10.2 -1.67914
      vertex -0.645168 -10.2 -1.67914
    endloop
  endfacet
  facet normal -0.458226 0 0.888836
    outer loop
      vertex -0.645168 10.2 -1.67914
      vertex -0.701703 10.2 -1.70829
      vertex -0.645168 -10.2 -1.67914
    endloop
  endfacet
  facet normal -0.458226 0 0.888836
    outer loop
      vertex -0.645168 -10.2 -1.67914
      vertex -0.701703 10.2 -1.70829
      vertex -0.701703 -10.2 -1.70829
    endloop
  endfacet
  facet normal -0.496248 0 0.868181
    outer loop
      vertex -0.701703 10.2 -1.70829
      vertex -0.756924 10.2 -1.73985
      vertex -0.701703 -10.2 -1.70829
    endloop
  endfacet
  facet normal -0.496248 0 0.868181
    outer loop
      vertex -0.701703 -10.2 -1.70829
      vertex -0.756924 10.2 -1.73985
      vertex -0.756924 -10.2 -1.73985
    endloop
  endfacet
  facet normal -0.533339 0 0.845902
    outer loop
      vertex -0.756924 10.2 -1.73985
      vertex -0.810728 10.2 -1.77378
      vertex -0.756924 -10.2 -1.73985
    endloop
  endfacet
  facet normal -0.533339 0 0.845902
    outer loop
      vertex -0.756924 -10.2 -1.73985
      vertex -0.810728 10.2 -1.77378
      vertex -0.810728 -10.2 -1.77378
    endloop
  endfacet
  facet normal -0.569434 0 0.822037
    outer loop
      vertex -0.810728 10.2 -1.77378
      vertex -0.863015 10.2 -1.81
      vertex -0.810728 -10.2 -1.77378
    endloop
  endfacet
  facet normal -0.569434 0 0.822037
    outer loop
      vertex -0.810728 -10.2 -1.77378
      vertex -0.863015 10.2 -1.81
      vertex -0.863015 -10.2 -1.81
    endloop
  endfacet
  facet normal -0.604461 0 0.796635
    outer loop
      vertex -0.863015 10.2 -1.81
      vertex -0.913685 10.2 -1.84844
      vertex -0.863015 -10.2 -1.81
    endloop
  endfacet
  facet normal -0.604461 0 0.796635
    outer loop
      vertex -0.863015 -10.2 -1.81
      vertex -0.913685 10.2 -1.84844
      vertex -0.913685 -10.2 -1.84844
    endloop
  endfacet
  facet normal -0.638357 0 0.76974
    outer loop
      vertex -0.913685 10.2 -1.84844
      vertex -0.962645 10.2 -1.88905
      vertex -0.913685 -10.2 -1.84844
    endloop
  endfacet
  facet normal -0.638357 0 0.76974
    outer loop
      vertex -0.913685 -10.2 -1.84844
      vertex -0.962645 10.2 -1.88905
      vertex -0.962645 -10.2 -1.88905
    endloop
  endfacet
  facet normal -0.671057 0 0.741405
    outer loop
      vertex -0.962645 10.2 -1.88905
      vertex -1.0098 10.2 -1.93173
      vertex -0.962645 -10.2 -1.88905
    endloop
  endfacet
  facet normal -0.671057 0 0.741405
    outer loop
      vertex -0.962645 -10.2 -1.88905
      vertex -1.0098 10.2 -1.93173
      vertex -1.0098 -10.2 -1.93173
    endloop
  endfacet
  facet normal -0.702503 0 0.71168
    outer loop
      vertex -1.0098 10.2 -1.93173
      vertex -1.05507 10.2 -1.97641
      vertex -1.0098 -10.2 -1.93173
    endloop
  endfacet
  facet normal -0.702503 0 0.71168
    outer loop
      vertex -1.0098 -10.2 -1.93173
      vertex -1.05507 10.2 -1.97641
      vertex -1.05507 -10.2 -1.97641
    endloop
  endfacet
  facet normal -0.732629 0 0.680628
    outer loop
      vertex -1.05507 10.2 -1.97641
      vertex -1.09836 10.2 -2.02301
      vertex -1.05507 -10.2 -1.97641
    endloop
  endfacet
  facet normal -0.732629 0 0.680628
    outer loop
      vertex -1.05507 -10.2 -1.97641
      vertex -1.09836 10.2 -2.02301
      vertex -1.09836 -10.2 -2.02301
    endloop
  endfacet
  facet normal -0.761389 0 0.648295
    outer loop
      vertex -1.09836 10.2 -2.02301
      vertex -1.1396 10.2 -2.07144
      vertex -1.09836 -10.2 -2.02301
    endloop
  endfacet
  facet normal -0.761389 0 0.648295
    outer loop
      vertex -1.09836 -10.2 -2.02301
      vertex -1.1396 10.2 -2.07144
      vertex -1.1396 -10.2 -2.07144
    endloop
  endfacet
  facet normal -0.788722 0 0.61475
    outer loop
      vertex -1.1396 10.2 -2.07144
      vertex -1.1787 10.2 -2.12161
      vertex -1.1396 -10.2 -2.07144
    endloop
  endfacet
  facet normal -0.788722 0 0.61475
    outer loop
      vertex -1.1396 -10.2 -2.07144
      vertex -1.1787 10.2 -2.12161
      vertex -1.1787 -10.2 -2.12161
    endloop
  endfacet
  facet normal -0.814576 0 0.580057
    outer loop
      vertex -1.1787 10.2 -2.12161
      vertex -1.21559 10.2 -2.17342
      vertex -1.1787 -10.2 -2.12161
    endloop
  endfacet
  facet normal -0.814576 0 0.580057
    outer loop
      vertex -1.1787 -10.2 -2.12161
      vertex -1.21559 10.2 -2.17342
      vertex -1.21559 -10.2 -2.17342
    endloop
  endfacet
  facet normal -0.838906 0 0.544277
    outer loop
      vertex -1.21559 10.2 -2.17342
      vertex -1.25021 10.2 -2.22678
      vertex -1.21559 -10.2 -2.17342
    endloop
  endfacet
  facet normal -0.838906 0 0.544277
    outer loop
      vertex -1.21559 -10.2 -2.17342
      vertex -1.25021 10.2 -2.22678
      vertex -1.25021 -10.2 -2.22678
    endloop
  endfacet
  facet normal -0.861666 0 0.507475
    outer loop
      vertex -1.25021 10.2 -2.22678
      vertex -1.28249 10.2 -2.28159
      vertex -1.25021 -10.2 -2.22678
    endloop
  endfacet
  facet normal -0.861666 0 0.507475
    outer loop
      vertex -1.25021 -10.2 -2.22678
      vertex -1.28249 10.2 -2.28159
      vertex -1.28249 -10.2 -2.28159
    endloop
  endfacet
  facet normal -0.882812 0 0.469727
    outer loop
      vertex -1.28249 10.2 -2.28159
      vertex -1.31237 10.2 -2.33774
      vertex -1.28249 -10.2 -2.28159
    endloop
  endfacet
  facet normal -0.882812 0 0.469727
    outer loop
      vertex -1.28249 -10.2 -2.28159
      vertex -1.31237 10.2 -2.33774
      vertex -1.31237 -10.2 -2.33774
    endloop
  endfacet
  facet normal -0.902306 0 0.431097
    outer loop
      vertex -1.31237 10.2 -2.33774
      vertex -1.33979 10.2 -2.39513
      vertex -1.31237 -10.2 -2.33774
    endloop
  endfacet
  facet normal -0.902306 0 0.431097
    outer loop
      vertex -1.31237 -10.2 -2.33774
      vertex -1.33979 10.2 -2.39513
      vertex -1.33979 -10.2 -2.39513
    endloop
  endfacet
  facet normal -0.92011 0 0.39166
    outer loop
      vertex -1.33979 10.2 -2.39513
      vertex -1.3647 10.2 -2.45366
      vertex -1.33979 -10.2 -2.39513
    endloop
  endfacet
  facet normal -0.92011 0 0.39166
    outer loop
      vertex -1.33979 -10.2 -2.39513
      vertex -1.3647 10.2 -2.45366
      vertex -1.3647 -10.2 -2.45366
    endloop
  endfacet
  facet normal -0.936191 0 0.351491
    outer loop
      vertex -1.3647 10.2 -2.45366
      vertex -1.38706 10.2 -2.5132
      vertex -1.3647 -10.2 -2.45366
    endloop
  endfacet
  facet normal -0.936191 0 0.351491
    outer loop
      vertex -1.3647 -10.2 -2.45366
      vertex -1.38706 10.2 -2.5132
      vertex -1.38706 -10.2 -2.5132
    endloop
  endfacet
  facet normal -0.95052 0 0.310663
    outer loop
      vertex -1.38706 10.2 -2.5132
      vertex -1.40682 10.2 -2.57366
      vertex -1.38706 -10.2 -2.5132
    endloop
  endfacet
  facet normal -0.95052 0 0.310663
    outer loop
      vertex -1.38706 -10.2 -2.5132
      vertex -1.40682 10.2 -2.57366
      vertex -1.40682 -10.2 -2.57366
    endloop
  endfacet
  facet normal -0.96307 0 0.269252
    outer loop
      vertex -1.40682 10.2 -2.57366
      vertex -1.42394 10.2 -2.63492
      vertex -1.40682 -10.2 -2.57366
    endloop
  endfacet
  facet normal -0.96307 0 0.269252
    outer loop
      vertex -1.40682 -10.2 -2.57366
      vertex -1.42394 10.2 -2.63492
      vertex -1.42394 -10.2 -2.63492
    endloop
  endfacet
  facet normal -0.973815 0 0.22734
    outer loop
      vertex -1.42394 10.2 -2.63492
      vertex -1.4384 10.2 -2.69686
      vertex -1.42394 -10.2 -2.63492
    endloop
  endfacet
  facet normal -0.973815 0 0.22734
    outer loop
      vertex -1.42394 -10.2 -2.63492
      vertex -1.4384 10.2 -2.69686
      vertex -1.4384 -10.2 -2.69686
    endloop
  endfacet
  facet normal -0.982739 0 0.184999
    outer loop
      vertex -1.4384 10.2 -2.69686
      vertex -1.45017 10.2 -2.75937
      vertex -1.4384 -10.2 -2.69686
    endloop
  endfacet
  facet normal -0.982739 0 0.184999
    outer loop
      vertex -1.4384 -10.2 -2.69686
      vertex -1.45017 10.2 -2.75937
      vertex -1.45017 -10.2 -2.75937
    endloop
  endfacet
  facet normal -0.989821 0 0.142316
    outer loop
      vertex -1.45017 10.2 -2.75937
      vertex -1.45922 10.2 -2.82233
      vertex -1.45017 -10.2 -2.75937
    endloop
  endfacet
  facet normal -0.989821 0 0.142316
    outer loop
      vertex -1.45017 -10.2 -2.75937
      vertex -1.45922 10.2 -2.82233
      vertex -1.45922 -10.2 -2.82233
    endloop
  endfacet
  facet normal -0.995051 0 0.0993631
    outer loop
      vertex -1.45922 10.2 -2.82233
      vertex -1.46554 10.2 -2.88562
      vertex -1.45922 -10.2 -2.82233
    endloop
  endfacet
  facet normal -0.995051 0 0.0993631
    outer loop
      vertex -1.45922 -10.2 -2.82233
      vertex -1.46554 10.2 -2.88562
      vertex -1.46554 -10.2 -2.88562
    endloop
  endfacet
  facet normal -0.998418 0 0.0562238
    outer loop
      vertex -1.46554 10.2 -2.88562
      vertex -1.46912 10.2 -2.94912
      vertex -1.46554 -10.2 -2.88562
    endloop
  endfacet
  facet normal -0.998418 0 0.0562238
    outer loop
      vertex -1.46554 -10.2 -2.88562
      vertex -1.46912 10.2 -2.94912
      vertex -1.46912 -10.2 -2.94912
    endloop
  endfacet
  facet normal -0.999916 0 0.0129821
    outer loop
      vertex -1.46912 10.2 -2.94912
      vertex -1.46994 10.2 -3.01272
      vertex -1.46912 -10.2 -2.94912
    endloop
  endfacet
  facet normal -0.999916 0 0.0129821
    outer loop
      vertex -1.46912 -10.2 -2.94912
      vertex -1.46994 10.2 -3.01272
      vertex -1.46994 -10.2 -3.01272
    endloop
  endfacet
  facet normal -0.999541 0 -0.0302871
    outer loop
      vertex -1.46994 10.2 -3.01272
      vertex -1.46802 10.2 -3.0763
      vertex -1.46994 -10.2 -3.01272
    endloop
  endfacet
  facet normal -0.999541 0 -0.0302871
    outer loop
      vertex -1.46994 -10.2 -3.01272
      vertex -1.46802 10.2 -3.0763
      vertex -1.46802 -10.2 -3.0763
    endloop
  endfacet
  facet normal -0.997296 0 -0.073496
    outer loop
      vertex -1.46802 10.2 -3.0763
      vertex -1.46334 10.2 -3.13973
      vertex -1.46802 -10.2 -3.0763
    endloop
  endfacet
  facet normal -0.997296 0 -0.073496
    outer loop
      vertex -1.46802 -10.2 -3.0763
      vertex -1.46334 10.2 -3.13973
      vertex -1.46334 -10.2 -3.13973
    endloop
  endfacet
  facet normal -0.993182 0 -0.116571
    outer loop
      vertex -1.46334 10.2 -3.13973
      vertex -1.45593 10.2 -3.2029
      vertex -1.46334 -10.2 -3.13973
    endloop
  endfacet
  facet normal -0.993182 0 -0.116571
    outer loop
      vertex -1.46334 -10.2 -3.13973
      vertex -1.45593 10.2 -3.2029
      vertex -1.45593 -10.2 -3.2029
    endloop
  endfacet
  facet normal -0.98721 0 -0.159425
    outer loop
      vertex -1.45593 10.2 -3.2029
      vertex -1.44579 10.2 -3.2657
      vertex -1.45593 -10.2 -3.2029
    endloop
  endfacet
  facet normal -0.98721 0 -0.159425
    outer loop
      vertex -1.45593 -10.2 -3.2029
      vertex -1.44579 10.2 -3.2657
      vertex -1.44579 -10.2 -3.2657
    endloop
  endfacet
  facet normal -0.979389 0 -0.201982
    outer loop
      vertex -1.44579 10.2 -3.2657
      vertex -1.43294 10.2 -3.32799
      vertex -1.44579 -10.2 -3.2657
    endloop
  endfacet
  facet normal -0.979389 0 -0.201982
    outer loop
      vertex -1.44579 -10.2 -3.2657
      vertex -1.43294 10.2 -3.32799
      vertex -1.43294 -10.2 -3.32799
    endloop
  endfacet
  facet normal -0.969735 0 -0.244161
    outer loop
      vertex -1.43294 10.2 -3.32799
      vertex -1.41741 10.2 -3.38967
      vertex -1.43294 -10.2 -3.32799
    endloop
  endfacet
  facet normal -0.969735 0 -0.244161
    outer loop
      vertex -1.43294 -10.2 -3.32799
      vertex -1.41741 10.2 -3.38967
      vertex -1.41741 -10.2 -3.38967
    endloop
  endfacet
  facet normal -0.958265 0 -0.285881
    outer loop
      vertex -1.41741 10.2 -3.38967
      vertex -1.39923 10.2 -3.45062
      vertex -1.41741 -10.2 -3.38967
    endloop
  endfacet
  facet normal -0.958265 0 -0.285881
    outer loop
      vertex -1.41741 -10.2 -3.38967
      vertex -1.39923 10.2 -3.45062
      vertex -1.39923 -10.2 -3.45062
    endloop
  endfacet
  facet normal -0.945 0 -0.327069
    outer loop
      vertex -1.39923 10.2 -3.45062
      vertex -1.37842 10.2 -3.51073
      vertex -1.39923 -10.2 -3.45062
    endloop
  endfacet
  facet normal -0.945 0 -0.327069
    outer loop
      vertex -1.39923 -10.2 -3.45062
      vertex -1.37842 10.2 -3.51073
      vertex -1.37842 -10.2 -3.51073
    endloop
  endfacet
  facet normal -0.929968 0 -0.367641
    outer loop
      vertex -1.37842 10.2 -3.51073
      vertex -1.35504 10.2 -3.56988
      vertex -1.37842 -10.2 -3.51073
    endloop
  endfacet
  facet normal -0.929968 0 -0.367641
    outer loop
      vertex -1.37842 -10.2 -3.51073
      vertex -1.35504 10.2 -3.56988
      vertex -1.35504 -10.2 -3.56988
    endloop
  endfacet
  facet normal -0.913193 0 -0.407527
    outer loop
      vertex -1.35504 10.2 -3.56988
      vertex -1.32912 10.2 -3.62797
      vertex -1.35504 -10.2 -3.56988
    endloop
  endfacet
  facet normal -0.913193 0 -0.407527
    outer loop
      vertex -1.35504 -10.2 -3.56988
      vertex -1.32912 10.2 -3.62797
      vertex -1.32912 -10.2 -3.62797
    endloop
  endfacet
  facet normal -0.89471 0 -0.446648
    outer loop
      vertex -1.32912 10.2 -3.62797
      vertex -1.30071 10.2 -3.68488
      vertex -1.32912 -10.2 -3.62797
    endloop
  endfacet
  facet normal -0.89471 0 -0.446648
    outer loop
      vertex -1.32912 -10.2 -3.62797
      vertex -1.30071 10.2 -3.68488
      vertex -1.30071 -10.2 -3.68488
    endloop
  endfacet
  facet normal -0.874549 0 -0.484936
    outer loop
      vertex -1.30071 10.2 -3.68488
      vertex -1.26986 10.2 -3.7405
      vertex -1.30071 -10.2 -3.68488
    endloop
  endfacet
  facet normal -0.874549 0 -0.484936
    outer loop
      vertex -1.30071 -10.2 -3.68488
      vertex -1.26986 10.2 -3.7405
      vertex -1.26986 -10.2 -3.7405
    endloop
  endfacet
  facet normal -0.852753 0 -0.522314
    outer loop
      vertex -1.26986 10.2 -3.7405
      vertex -1.23664 10.2 -3.79474
      vertex -1.26986 -10.2 -3.7405
    endloop
  endfacet
  facet normal -0.852753 0 -0.522314
    outer loop
      vertex -1.26986 -10.2 -3.7405
      vertex -1.23664 10.2 -3.79474
      vertex -1.23664 -10.2 -3.79474
    endloop
  endfacet
  facet normal -0.829359 0 -0.558716
    outer loop
      vertex -1.23664 10.2 -3.79474
      vertex -1.20111 10.2 -3.84749
      vertex -1.23664 -10.2 -3.79474
    endloop
  endfacet
  facet normal -0.829359 0 -0.558716
    outer loop
      vertex -1.23664 -10.2 -3.79474
      vertex -1.20111 10.2 -3.84749
      vertex -1.20111 -10.2 -3.84749
    endloop
  endfacet
  facet normal -0.804415 0 -0.594068
    outer loop
      vertex -1.20111 10.2 -3.84749
      vertex -1.16332 10.2 -3.89866
      vertex -1.20111 -10.2 -3.84749
    endloop
  endfacet
  facet normal -0.804415 0 -0.594068
    outer loop
      vertex -1.20111 -10.2 -3.84749
      vertex -1.16332 10.2 -3.89866
      vertex -1.16332 -10.2 -3.89866
    endloop
  endfacet
  facet normal -0.777962 0 -0.628312
    outer loop
      vertex -1.16332 10.2 -3.89866
      vertex -1.12335 10.2 -3.94814
      vertex -1.16332 -10.2 -3.89866
    endloop
  endfacet
  facet normal -0.777962 0 -0.628312
    outer loop
      vertex -1.16332 -10.2 -3.89866
      vertex -1.12335 10.2 -3.94814
      vertex -1.12335 -10.2 -3.94814
    endloop
  endfacet
  facet normal -0.750055 0 -0.661375
    outer loop
      vertex -1.12335 10.2 -3.94814
      vertex -1.08129 10.2 -3.99585
      vertex -1.12335 -10.2 -3.94814
    endloop
  endfacet
  facet normal -0.750055 0 -0.661375
    outer loop
      vertex -1.12335 -10.2 -3.94814
      vertex -1.08129 10.2 -3.99585
      vertex -1.08129 -10.2 -3.99585
    endloop
  endfacet
  facet normal -0.720742 0 -0.693204
    outer loop
      vertex -1.08129 10.2 -3.99585
      vertex -1.0372 10.2 -4.04169
      vertex -1.08129 -10.2 -3.99585
    endloop
  endfacet
  facet normal -0.720742 0 -0.693204
    outer loop
      vertex -1.08129 -10.2 -3.99585
      vertex -1.0372 10.2 -4.04169
      vertex -1.0372 -10.2 -4.04169
    endloop
  endfacet
  facet normal -0.690077 0 -0.723736
    outer loop
      vertex -1.0372 10.2 -4.04169
      vertex -0.991162 10.2 -4.08559
      vertex -1.0372 -10.2 -4.04169
    endloop
  endfacet
  facet normal -0.690077 0 -0.723736
    outer loop
      vertex -1.0372 -10.2 -4.04169
      vertex -0.991162 10.2 -4.08559
      vertex -0.991162 -10.2 -4.08559
    endloop
  endfacet
  facet normal -0.658125 0 -0.752909
    outer loop
      vertex -0.991162 10.2 -4.08559
      vertex -0.943272 10.2 -4.12745
      vertex -0.991162 -10.2 -4.08559
    endloop
  endfacet
  facet normal -0.658125 0 -0.752909
    outer loop
      vertex -0.991162 -10.2 -4.08559
      vertex -0.943272 10.2 -4.12745
      vertex -0.943272 -10.2 -4.12745
    endloop
  endfacet
  facet normal -0.624939 0 -0.780673
    outer loop
      vertex -0.943272 10.2 -4.12745
      vertex -0.893617 10.2 -4.1672
      vertex -0.943272 -10.2 -4.12745
    endloop
  endfacet
  facet normal -0.624939 0 -0.780673
    outer loop
      vertex -0.943272 -10.2 -4.12745
      vertex -0.893617 10.2 -4.1672
      vertex -0.893617 -10.2 -4.1672
    endloop
  endfacet
  facet normal -0.590582 0 -0.806977
    outer loop
      vertex -0.893617 10.2 -4.1672
      vertex -0.842289 10.2 -4.20476
      vertex -0.893617 -10.2 -4.1672
    endloop
  endfacet
  facet normal -0.590582 0 -0.806977
    outer loop
      vertex -0.893617 -10.2 -4.1672
      vertex -0.842289 10.2 -4.20476
      vertex -0.842289 -10.2 -4.20476
    endloop
  endfacet
  facet normal -0.555119 0 -0.831771
    outer loop
      vertex -0.842289 10.2 -4.20476
      vertex -0.789383 10.2 -4.24007
      vertex -0.842289 -10.2 -4.20476
    endloop
  endfacet
  facet normal -0.555119 0 -0.831771
    outer loop
      vertex -0.842289 -10.2 -4.20476
      vertex -0.789383 10.2 -4.24007
      vertex -0.789383 -10.2 -4.24007
    endloop
  endfacet
  facet normal -0.518622 0 -0.855004
    outer loop
      vertex -0.789383 10.2 -4.24007
      vertex -0.735 10.2 -4.27306
      vertex -0.789383 -10.2 -4.24007
    endloop
  endfacet
  facet normal -0.518622 0 -0.855004
    outer loop
      vertex -0.789383 -10.2 -4.24007
      vertex -0.735 10.2 -4.27306
      vertex -0.735 -10.2 -4.27306
    endloop
  endfacet
endsolid Mesh
